<svg width="121px" height="122px" viewBox="0 34 121 122" version="1.1" xmlns="http://www.w3.org/2000/svg" xmlns:xlink="http://www.w3.org/1999/xlink">
    <!-- Generator: Sketch 3.7.1 (28215) - http://www.bohemiancoding.com/sketch -->
    <desc>Created with Sketch.</desc>
    <defs></defs>
    <g id="Monogram_1_" stroke="none" stroke-width="1" fill="none" fill-rule="evenodd" transform="translate(0.000000, 34.000000)">
        <path d="M120.807543,106.780654 C121.060976,110.112918 118.54189,113.04693 115.20915,113.300839 L14.2236929,120.982434 C10.8909528,121.235867 7.95694094,118.71678 7.70350787,115.384516 L0.0219133858,14.3981069 C-0.231519685,11.0653668 2.28756693,8.13135498 5.61983071,7.87792191 L106.605287,0.19632742 C109.938028,-0.0571056513 112.872039,2.46198096 113.125949,5.79472112 L120.807543,106.780654 L120.807543,106.780654 Z" id="Background_1_" fill="#8C2020"></path>
        <polygon id="Shape" fill="#000000" opacity="0.15" points="19.7072795 120.565603 103.18013 114.215961 103.18013 0.45690616 19.7072795 6.80654789"></polygon>
        <polygon id="Shape" fill="#000000" opacity="0.15" points="19.7072795 120.565603 32.6518976 119.580453 32.6518976 5.82187466 19.7072795 6.80654789"></polygon>
        <polygon id="Shape" fill="#000000" opacity="0.15" points="66.3765984 117.015635 79.3216929 116.030485 79.3216929 2.27190616 66.3765984 3.25657939"></polygon>
        <polygon id="Shape" fill="#000000" opacity="0.1" points="1.57585827 34.8285282 115.333961 34.8285282 114.379299 22.2726345 0.620720472 22.2726345"></polygon>
        <polygon id="M_2_" fill="#FFFFFF" points="19.7072795 41.5549849 33.8442717 41.5549849 49.514248 66.763477 65.1842244 41.5549849 79.3216929 41.5549849 79.3216929 101.169398 66.3765984 101.169398 66.3765984 62.2497959 49.5995197 87.7136266 49.2589094 87.7136266 32.652374 62.5056109 32.652374 101.169398 19.7072795 101.169398"></polygon>
        <polygon id="Shape" fill="#FFFFFF" opacity="0.15" points="6.62212992 101.169398 120.380709 101.169398 115.846067 41.5549849 2.08748819 41.5549849"></polygon>
        <path d="M68.4583701,116.857001 L80.1015236,115.971414 L12.5811417,7.348666 L5.61983071,7.87839829 C2.74536614,8.09657939 0.480665354,10.3112605 0.0738385827,13.0542447 L68.4583701,116.857001 L68.4583701,116.857001 Z" id="Shape" fill="#000000" opacity="0.03"></path>
        <polygon id="Shape" fill="#000000" opacity="0.03" points="15.890063 120.855717 28.3897441 119.904867 107.295559 0.143925845 90.1130827 1.45110695"></polygon>
        <rect id="Bar_2_" fill="#FFFFFF" x="19.7072795" y="22.2726345" width="83.4728504" height="12.5558937"></rect>
    </g>
</svg>
