<svg width="780" height="97" viewBox="0 0 780 97" fill="#000" xmlns="http://www.w3.org/2000/svg">
<path d="M140.177 84.248C135.365 84.248 131.324 82.3229 128.34 78.6654C127.86 81.168 127.762 81.8411 126.993 83.1894H117.273C118.14 80.9746 118.525 78.8587 118.525 72.3131V26.4108C118.525 20.8294 118.14 17.3639 117.273 14.6706L128.244 12.2643C128.822 15.7279 129.015 18.1348 129.015 21.9837V33.3385C129.015 36.5143 128.725 37.9583 128.725 37.9583L129.111 38.0547C132.479 34.7826 136.038 33.3386 140.659 33.3386C152.303 33.3386 159.616 42.8653 159.616 58.0723C159.616 73.6615 151.533 84.2481 140.177 84.2481V84.248ZM138.35 42.2891C133.921 42.2891 131.035 44.7917 129.111 47.1973V70.9681C131.228 73.181 134.308 75.2012 138.156 75.2012C144.798 75.2012 147.684 70.3893 147.684 58.168C147.684 49.4108 145.952 42.2891 138.35 42.2891Z"/>
<path d="M210.62 59.0332C210.62 74.72 202.248 84.4401 189.062 84.4401C175.879 84.4401 167.603 74.528 167.603 58.9375C167.603 43.3476 175.976 33.3385 188.87 33.3385C202.728 33.3385 210.62 43.6374 210.62 59.0332ZM179.342 58.2643C179.342 72.4108 182.904 76.5482 189.256 76.5482C195.51 76.5482 198.976 71.4479 198.976 59.2266C198.976 45.4655 195.125 41.3268 188.967 41.3268C182.23 41.3268 179.342 46.4264 179.342 58.2643Z"/>
<path d="M246.808 83.1894C245.077 80.3984 237.186 66.733 236.223 65C234.395 68.6575 227.465 80.4948 225.637 83.1894H212.26L230.354 56.8203L216.303 35.9375L227.755 33.6282C229.968 37.2851 234.299 44.888 236.608 49.4108C237.954 46.2343 242.863 36.5143 244.307 34.4948H256.625L242.285 56.6282L260.089 83.1894H246.808"/>
<path d="M274.143 61.7279V62.4987C274.143 69.2344 276.644 76.3574 286.171 76.3574C290.695 76.3574 294.64 74.72 298.298 71.5443L302.435 77.9922C297.335 82.3229 291.464 84.4401 284.92 84.4401C271.159 84.4401 262.499 74.528 262.499 58.9375C262.499 50.3717 264.327 44.6959 268.561 39.8828C272.506 35.36 277.317 33.3385 283.477 33.3385C288.288 33.3385 292.716 34.5905 296.854 38.3437C301.088 42.1934 303.205 48.1588 303.205 59.5163V61.7279H274.143V61.7279ZM283.477 41.3268C277.51 41.3268 274.239 46.0416 274.239 53.9336H292.234C292.234 46.0416 288.77 41.3268 283.477 41.3268"/>
<path d="M328.513 84.5358C322.547 84.5358 316.099 82.612 309.842 79.1465L313.596 71.5443C317.926 74.0469 323.893 76.6452 329.379 76.6452C333.999 76.6452 337.271 73.8548 337.271 69.8118C337.271 66.0586 334.865 64.1347 329.379 62.9785L323.508 61.7279C316.195 60.1894 311.865 55.1855 311.865 48.3522C311.865 39.2096 319.178 32.8587 329.957 32.8587C336.596 32.8587 341.889 34.8789 346.028 37.0918L342.564 44.4069C338.04 42 334.479 40.845 330.631 40.845C326.107 40.845 323.22 43.3476 323.22 47.1003C323.22 50.0853 324.856 51.6237 329.764 52.875L335.827 54.4147C345.643 56.9173 348.242 62.3066 348.242 67.9824C348.242 77.8001 340.253 84.5358 328.513 84.5358"/>
<path d="M392.411 85.2096C389.43 84.0547 386.927 81.7454 385.771 78.6654C381.826 83.0918 377.59 84.6335 372.395 84.6335C361.23 84.6335 356.225 78.4733 356.225 70.0052C356.225 58.7454 364.695 53.0677 380.285 53.0677H383.557V50.4694C383.557 44.888 382.596 41.9036 376.823 41.9036C369.796 41.9036 362.288 47.4857 362.288 47.4857L357.575 39.8828C364.888 35.2643 370.949 33.2428 378.266 33.2428C385.867 33.2428 390.969 36.0332 393.086 41.3268C393.951 43.444 393.951 46.0417 393.854 53.2598L393.664 67.2135C393.568 73.7571 394.143 75.875 397.898 78.4733L392.411 85.2096V85.2096ZM381.44 60.1894C370.854 60.1894 367.678 63.2682 367.678 69.4264C367.678 74.0469 370.181 76.9336 374.416 76.9336C377.783 76.9336 381.057 74.9134 383.173 71.8333L383.364 60.2851C383.364 60.2851 382.211 60.1894 381.44 60.1894"/>
<path d="M435.523 83.1894V50.8548C435.523 44.2135 433.984 42.3854 429.943 42.3854C426.863 42.3854 422.435 44.6959 419.26 47.8704V83.1894H408.867V47.3893C408.867 42.289 408.385 39.3066 407.039 35.8411L416.661 33.1465C417.818 35.36 418.393 37.4772 418.393 40.0761C423.591 35.6491 428.115 33.3385 433.311 33.3385C440.818 33.3385 446.013 37.8626 446.013 46.8118V83.1894H435.523"/>
<path d="M489.797 83.1894C489.318 82.1308 489.221 81.457 488.932 79.4362C485.659 82.7064 481.811 84.248 477 84.248C464.586 84.248 457.078 74.528 457.078 59.3229C457.078 44.0214 465.547 33.6282 477.286 33.6282C481.424 33.6282 484.794 34.9746 487.776 38.0547C487.776 38.0547 487.49 34.3014 487.49 30.0664V12.2643L497.979 13.8997V66.2519C497.979 75.875 498.555 80.7825 499.518 83.1894H489.797ZM487.49 46.0416C485.083 43.444 482.197 42.0963 478.635 42.0963C471.898 42.0963 468.818 47.4857 468.818 59.2265C468.818 70.0052 470.935 75.3932 478.924 75.3932C482.87 75.3932 486.044 73.181 487.49 70.7747V46.0416"/>
<path d="M546.19 85.2096C543.208 84.0547 540.706 81.7454 539.549 78.6654C535.604 83.0918 531.37 84.6335 526.174 84.6335C515.01 84.6335 510.005 78.4733 510.005 70.0052C510.005 58.7454 518.475 53.0677 534.065 53.0677H537.336V50.4694C537.336 44.888 536.375 41.9036 530.602 41.9036C523.576 41.9036 516.07 47.4857 516.07 47.4857L511.354 39.8828C518.667 35.2643 524.729 33.2428 532.044 33.2428C539.646 33.2428 544.747 36.0332 546.866 41.3268C547.729 43.444 547.729 46.0417 547.635 53.2598L547.443 67.2135C547.346 73.7571 547.922 75.875 551.677 78.4733L546.19 85.2096V85.2096ZM535.219 60.1894C524.633 60.1894 521.458 63.2682 521.458 69.4264C521.458 74.0469 523.961 76.9336 528.197 76.9336C531.562 76.9336 534.836 74.9134 536.953 71.8333L537.146 60.2851C537.146 60.2851 535.99 60.1894 535.219 60.1894"/>
<path d="M585.164 43.733C584.107 43.3476 583.336 43.0586 582.182 43.0586C577.756 43.0586 574 46.3307 573.039 50.276V83.1894H562.453V48.8333C562.453 42.6744 561.779 38.7278 560.721 35.7454L570.44 33.2428C571.596 35.4557 572.268 38.248 572.268 40.9414C576.117 35.6491 579.969 33.1465 584.682 33.1465C586.224 33.1465 587.185 33.3385 588.437 33.9173L585.164 43.733"/>
<path d="M618.268 43.733C617.208 43.3476 616.44 43.0586 615.284 43.0586C610.857 43.0586 607.104 46.3307 606.143 50.276V83.1894H595.557V48.8333C595.557 42.6744 594.883 38.7278 593.826 35.7454L603.544 33.2428C604.698 35.4557 605.372 38.248 605.372 40.9414C609.221 35.6491 613.07 33.1465 617.786 33.1465C619.326 33.1465 620.289 33.3385 621.539 33.9173L618.268 43.733"/>
<path d="M667.346 59.0332C667.346 74.72 658.975 84.4401 645.789 84.4401C632.604 84.4401 624.328 74.528 624.328 58.9375C624.328 43.3476 632.702 33.3385 645.596 33.3385C659.456 33.3385 667.346 43.6374 667.346 59.0332ZM636.07 58.2643C636.07 72.4108 639.63 76.5482 645.982 76.5482C652.237 76.5482 655.702 71.4479 655.702 59.2266C655.702 45.4655 651.852 41.3268 645.693 41.3268C638.956 41.3268 636.07 46.4264 636.07 58.2643"/>
<path d="M723.453 83.3815H713.542L707.576 60.9583C706.034 55.1855 704.398 47.6784 704.398 47.6784H704.206C704.206 47.6784 703.438 52.4896 701.031 61.4401L695.161 83.3815H685.247L671.969 35.168L682.458 33.724L687.75 57.3027C689.099 63.3639 690.254 70.1003 690.254 70.1003H690.542C690.542 70.1003 691.503 63.7506 693.331 57.013L699.587 34.4948H709.982L715.466 56.4362C717.487 64.3268 718.544 70.2936 718.544 70.2936H718.833C718.833 70.2936 719.99 62.8828 721.24 57.2051L726.245 34.4948H737.216L723.453 83.3815"/>
<path d="M759.346 84.5358C753.38 84.5358 746.932 82.612 740.677 79.1465L744.43 71.5443C748.76 74.0469 754.727 76.6452 760.214 76.6452C764.833 76.6452 768.104 73.8548 768.104 69.8118C768.104 66.0586 765.699 64.1347 760.214 62.9785L754.344 61.7279C747.029 60.1894 742.699 55.1855 742.699 48.3522C742.699 39.2096 750.013 32.8587 760.789 32.8587C767.43 32.8587 772.724 34.8789 776.862 37.0918L773.396 44.4069C768.875 42 765.312 40.845 761.464 40.845C756.94 40.845 754.055 43.3476 754.055 47.1003C754.055 50.0853 755.69 51.6237 760.599 52.875L766.661 54.4147C776.477 56.9173 779.076 62.3066 779.076 67.9824C779.076 77.8001 771.09 84.5358 759.346 84.5358"/>
<path d="M71.6504 0.357417H25.1536C17.4583 0.357417 10.7305 4.59765 8.01302 11.1602C5.34505 17.6003 7.08527 24.9961 12.5508 30.4603L12.8183 30.7279L49.7799 60.8815C45.6614 60.8815 40.9277 60.8815 40.9277 60.8815C36.7864 60.8815 33.4277 64.2402 33.4277 68.3815C33.4277 72.5241 36.7864 75.8815 40.9277 75.8815H55.7643C69.0521 75.8815 74.472 70.4616 74.472 57.1706V41.0228C74.472 36.8802 71.1133 33.5228 66.972 33.5228C62.8307 33.5228 59.472 36.8802 59.472 41.0228V49.431C46.8359 39.1211 23.5078 20.0905 22.9707 19.6504C22.4896 19.1387 21.7747 18.2467 21.7747 17.3971C21.7747 17.2279 21.8053 17.0599 21.8705 16.8984C22.1895 16.1322 23.3281 15.3574 25.1537 15.3574H71.6504C77.0534 15.3574 81.4479 19.7519 81.4479 25.1562V71.6491C81.4479 77.0521 77.0534 81.4479 71.6504 81.4479H25.1537C19.7507 81.4479 15.3561 77.0521 15.3561 71.6491V46.6973C15.3561 42.5547 11.9974 39.1973 7.85614 39.1973C3.71357 39.1973 0.35614 42.5547 0.35614 46.6973V71.6491C0.35614 85.3229 11.4798 96.4479 25.1537 96.4479H71.6504C85.3242 96.4479 96.4479 85.3229 96.4479 71.6491V25.1562C96.4479 11.4811 85.3242 0.357417 71.6504 0.357417"/>
</svg>
