<svg width="674" height="453" viewBox="0 0 674 453" fill="none" xmlns="http://www.w3.org/2000/svg">
<rect width="674" height="453" rx="10" fill="white"/>
<rect x="5" y="23" width="150" height="425" rx="6" fill="#819AA5"/>
<rect x="619" y="276" width="36" height="18" rx="9" fill="#79A9D5"/>
<rect x="619" y="308" width="18" height="18" rx="9" fill="#79A9D5"/>
<rect x="183" y="29" width="73" height="13" rx="6.5" fill="#7D7D7D"/>
<rect x="264" y="29" width="122" height="13" rx="6.5" fill="#7D7D7D"/>
<rect x="18" y="78" width="62" height="7" rx="3.5" fill="white"/>
<rect x="18" y="148" width="62" height="7" rx="3.5" fill="white"/>
<rect opacity="0.4" x="18" y="168" width="74" height="7" rx="3.5" fill="white"/>
<rect opacity="0.4" x="18" y="188" width="62" height="7" rx="3.5" fill="white"/>
<rect opacity="0.4" x="18" y="208" width="73" height="7" rx="3.5" fill="white"/>
<rect x="18" y="248" width="62" height="7" rx="3.5" fill="white"/>
<rect opacity="0.65" x="626" y="30" width="11" height="11" rx="5.5" fill="#C4C4C4"/>
<rect x="206" y="211" width="76" height="10" rx="5" fill="#7D7D7D"/>
<rect x="206" y="362" width="62" height="18" rx="9" fill="#93C462"/>
<rect x="436" y="366" width="70" height="8" rx="4" fill="#7D7D7D"/>
<rect x="556" y="359" width="52" height="12" rx="6" fill="#FF896C"/>
<rect x="206" y="234" width="62" height="7" rx="3.5" fill="#C4C4C4"/>
<rect x="326" y="234" width="62" height="7" rx="3.5" fill="#C4C4C4"/>
<rect x="436" y="234" width="62" height="7" rx="3.5" fill="#C4C4C4"/>
<rect x="564" y="234" width="44" height="7" rx="3.5" fill="#C4C4C4"/>
<rect x="206" y="250" width="81" height="7" rx="3.5" fill="#C4C4C4"/>
<rect x="326" y="250" width="55" height="7" rx="3.5" fill="#C4C4C4"/>
<rect x="436" y="250" width="62" height="7" rx="3.5" fill="#C4C4C4"/>
<rect x="564" y="250" width="44" height="7" rx="3.5" fill="#FF896C"/>
<rect x="206" y="266" width="49" height="7" rx="3.5" fill="#C4C4C4"/>
<rect x="326" y="266" width="55" height="7" rx="3.5" fill="#C4C4C4"/>
<rect x="436" y="266" width="62" height="7" rx="3.5" fill="#C4C4C4"/>
<rect x="574" y="266" width="34" height="7" rx="3.5" fill="#FF896C"/>
<rect x="206" y="282" width="62" height="7" rx="3.5" fill="#C4C4C4"/>
<rect x="326" y="282" width="49" height="7" rx="3.5" fill="#C4C4C4"/>
<rect x="436" y="282" width="57" height="7" rx="3.5" fill="#C4C4C4"/>
<rect x="564" y="282" width="44" height="7" rx="3.5" fill="#FF896C"/>
<rect x="206" y="298" width="54" height="7" rx="3.5" fill="#C4C4C4"/>
<rect x="326" y="298" width="62" height="7" rx="3.5" fill="#C4C4C4"/>
<rect x="436" y="298" width="62" height="7" rx="3.5" fill="#C4C4C4"/>
<rect x="574" y="298" width="34" height="7" rx="3.5" fill="#FF896C"/>
<rect x="206" y="314" width="108" height="7" rx="3.5" fill="#C4C4C4"/>
<rect x="326" y="314" width="70" height="7" rx="3.5" fill="#C4C4C4"/>
<rect x="436" y="314" width="62" height="7" rx="3.5" fill="#C4C4C4"/>
<rect x="553" y="314" width="55" height="7" rx="3.5" fill="#FF896C"/>
<rect x="206" y="330" width="81" height="7" rx="3.5" fill="#C4C4C4"/>
<rect x="326" y="330" width="62" height="7" rx="3.5" fill="#C4C4C4"/>
<rect x="436" y="330" width="62" height="7" rx="3.5" fill="#C4C4C4"/>
<rect x="564" y="330" width="44" height="7" rx="3.5" fill="#FF896C"/>
<rect x="5" y="98" width="150" height="27" fill="white"/>
<rect x="18" y="108" width="62" height="7" rx="3.5" fill="#7D7D7D"/>
<path d="M207.5 86.5V164H606.5" stroke="#C4C4C4" stroke-width="3" stroke-linecap="round" stroke-linejoin="round"/>
<path opacity="0.7" d="M216.5 126.5L232 114L262.5 124.5L292.5 104.5L322 84L352 134.5L382.5 94L412 114L442 104.5L472 144.5L502 154.5L532 74L562 84L592 144.5L622.5 114" stroke="#79A9D5" stroke-width="8" stroke-linecap="round" stroke-linejoin="round"/>
<rect opacity="0.6" x="11" y="7" width="9" height="9" rx="4.5" fill="#F06161"/>
<rect opacity="0.6" x="26" y="7" width="9" height="9" rx="4.5" fill="#F9C02E"/>
<rect opacity="0.6" x="41" y="7" width="9" height="9" rx="4.5" fill="#2BD68E"/>
</svg>
