<svg width="134" height="31" viewBox="0 0 134 31" fill="none" xmlns="http://www.w3.org/2000/svg">
<path d="M0.58 1.76H7.9C8.7 1.76 9.5 1.85 10.3 2.03C11.1 2.21 11.81 2.51 12.43 2.93C13.07 3.35 13.58 3.9 13.96 4.58C14.36 5.26 14.56 6.11 14.56 7.13C14.56 8.31 14.22 9.3 13.54 10.1C12.86 10.9 11.96 11.45 10.84 11.75V11.81C11.52 11.89 12.15 12.07 12.73 12.35C13.31 12.61 13.81 12.96 14.23 13.4C14.65 13.84 14.97 14.36 15.19 14.96C15.43 15.56 15.55 16.23 15.55 16.97C15.55 17.99 15.34 18.88 14.92 19.64C14.5 20.4 13.93 21.03 13.21 21.53C12.49 22.01 11.64 22.38 10.66 22.64C9.7 22.88 8.67 23 7.57 23H0.58V1.76ZM3.55 10.73H7.42C7.98 10.73 8.51 10.67 9.01 10.55C9.53 10.41 9.98 10.21 10.36 9.95C10.74 9.67 11.04 9.33 11.26 8.93C11.48 8.51 11.59 8.01 11.59 7.43C11.59 6.29 11.17 5.48 10.33 5C9.49 4.5 8.36 4.25 6.94 4.25H3.55V10.73ZM3.55 20.48H7.27C7.89 20.48 8.51 20.43 9.13 20.33C9.77 20.21 10.34 20.01 10.84 19.73C11.36 19.45 11.77 19.08 12.07 18.62C12.39 18.14 12.55 17.54 12.55 16.82C12.55 15.56 12.12 14.65 11.26 14.09C10.4 13.53 9.16 13.25 7.54 13.25H3.55V20.48ZM28.698 23C28.658 22.64 28.628 22.24 28.608 21.8C28.588 21.34 28.578 20.96 28.578 20.66H28.518C28.158 21.42 27.548 22.07 26.688 22.61C25.848 23.13 24.908 23.39 23.868 23.39C22.948 23.39 22.148 23.24 21.468 22.94C20.808 22.64 20.258 22.23 19.818 21.71C19.398 21.17 19.078 20.55 18.858 19.85C18.658 19.15 18.558 18.4 18.558 17.6V8.78H21.378V16.64C21.378 17.22 21.418 17.78 21.498 18.32C21.598 18.84 21.768 19.3 22.008 19.7C22.248 20.1 22.578 20.42 22.998 20.66C23.418 20.9 23.958 21.02 24.618 21.02C25.758 21.02 26.678 20.6 27.378 19.76C28.078 18.9 28.428 17.76 28.428 16.34V8.78H31.248V19.94C31.248 20.32 31.258 20.81 31.278 21.41C31.298 22.01 31.328 22.54 31.368 23H28.698ZM46.479 20.75C45.939 21.61 45.199 22.27 44.259 22.73C43.339 23.17 42.369 23.39 41.349 23.39C40.249 23.39 39.259 23.2 38.379 22.82C37.499 22.42 36.749 21.88 36.129 21.2C35.509 20.52 35.029 19.72 34.689 18.8C34.349 17.88 34.179 16.9 34.179 15.86C34.179 14.82 34.349 13.85 34.689 12.95C35.029 12.03 35.509 11.23 36.129 10.55C36.769 9.87 37.529 9.34 38.409 8.96C39.289 8.58 40.259 8.39 41.319 8.39C42.479 8.39 43.489 8.64 44.349 9.14C45.209 9.62 45.889 10.21 46.389 10.91H46.449V0.319999H49.269V23H46.539V20.75H46.479ZM37.119 15.86C37.119 16.52 37.219 17.16 37.419 17.78C37.619 18.4 37.919 18.95 38.319 19.43C38.719 19.91 39.209 20.3 39.789 20.6C40.369 20.88 41.049 21.02 41.829 21.02C42.549 21.02 43.199 20.88 43.779 20.6C44.379 20.32 44.889 19.95 45.309 19.49C45.729 19.01 46.049 18.46 46.269 17.84C46.509 17.22 46.629 16.57 46.629 15.89C46.629 15.21 46.509 14.56 46.269 13.94C46.049 13.32 45.729 12.77 45.309 12.29C44.889 11.81 44.379 11.43 43.779 11.15C43.199 10.87 42.549 10.73 41.829 10.73C41.049 10.73 40.369 10.87 39.789 11.15C39.209 11.43 38.719 11.81 38.319 12.29C37.919 12.77 37.619 13.32 37.419 13.94C37.219 14.56 37.119 15.2 37.119 15.86ZM54.292 25.43C54.912 26.13 55.682 26.69 56.602 27.11C57.542 27.53 58.502 27.74 59.482 27.74C60.422 27.74 61.212 27.6 61.852 27.32C62.492 27.06 63.002 26.69 63.382 26.21C63.782 25.75 64.062 25.2 64.222 24.56C64.402 23.92 64.492 23.23 64.492 22.49V20.66H64.432C63.912 21.46 63.202 22.07 62.302 22.49C61.402 22.91 60.442 23.12 59.422 23.12C58.342 23.12 57.352 22.93 56.452 22.55C55.572 22.17 54.822 21.65 54.202 20.99C53.582 20.33 53.102 19.56 52.762 18.68C52.422 17.78 52.252 16.82 52.252 15.8C52.252 14.78 52.422 13.82 52.762 12.92C53.102 12.02 53.582 11.24 54.202 10.58C54.822 9.9 55.572 9.37 56.452 8.99C57.332 8.59 58.312 8.39 59.392 8.39C60.412 8.39 61.382 8.61 62.302 9.05C63.242 9.49 63.982 10.16 64.522 11.06H64.582V8.78H67.312V22.28C67.312 23.32 67.182 24.31 66.922 25.25C66.662 26.21 66.222 27.05 65.602 27.77C64.982 28.51 64.172 29.1 63.172 29.54C62.172 29.98 60.932 30.2 59.452 30.2C58.212 30.2 56.962 29.97 55.702 29.51C54.462 29.07 53.392 28.44 52.492 27.62L54.292 25.43ZM55.162 15.74C55.162 16.4 55.262 17.03 55.462 17.63C55.682 18.23 55.992 18.76 56.392 19.22C56.812 19.68 57.312 20.05 57.892 20.33C58.472 20.61 59.132 20.75 59.872 20.75C60.592 20.75 61.252 20.62 61.852 20.36C62.452 20.1 62.962 19.75 63.382 19.31C63.802 18.85 64.122 18.32 64.342 17.72C64.582 17.1 64.702 16.44 64.702 15.74C64.702 15.06 64.582 14.42 64.342 13.82C64.122 13.22 63.792 12.69 63.352 12.23C62.932 11.77 62.422 11.41 61.822 11.15C61.242 10.87 60.592 10.73 59.872 10.73C59.132 10.73 58.472 10.87 57.892 11.15C57.312 11.41 56.812 11.77 56.392 12.23C55.992 12.67 55.682 13.2 55.462 13.82C55.262 14.42 55.162 15.06 55.162 15.74ZM81.547 14.63C81.527 14.07 81.427 13.55 81.247 13.07C81.087 12.57 80.837 12.14 80.497 11.78C80.177 11.42 79.767 11.14 79.267 10.94C78.787 10.72 78.217 10.61 77.557 10.61C76.957 10.61 76.387 10.72 75.847 10.94C75.327 11.14 74.867 11.42 74.467 11.78C74.087 12.14 73.767 12.57 73.507 13.07C73.267 13.55 73.127 14.07 73.087 14.63H81.547ZM84.397 15.77C84.397 15.93 84.397 16.09 84.397 16.25C84.397 16.41 84.387 16.57 84.367 16.73H73.087C73.107 17.33 73.237 17.9 73.477 18.44C73.737 18.96 74.077 19.42 74.497 19.82C74.917 20.2 75.397 20.5 75.937 20.72C76.497 20.94 77.087 21.05 77.707 21.05C78.667 21.05 79.497 20.84 80.197 20.42C80.897 20 81.447 19.49 81.847 18.89L83.827 20.48C83.067 21.48 82.167 22.22 81.127 22.7C80.107 23.16 78.967 23.39 77.707 23.39C76.627 23.39 75.627 23.21 74.707 22.85C73.787 22.49 72.997 21.99 72.337 21.35C71.677 20.69 71.157 19.9 70.777 18.98C70.397 18.06 70.207 17.04 70.207 15.92C70.207 14.82 70.387 13.81 70.747 12.89C71.127 11.95 71.647 11.15 72.307 10.49C72.967 9.83 73.747 9.32 74.647 8.96C75.547 8.58 76.517 8.39 77.557 8.39C78.597 8.39 79.537 8.56 80.377 8.9C81.237 9.24 81.957 9.73 82.537 10.37C83.137 11.01 83.597 11.79 83.917 12.71C84.237 13.61 84.397 14.63 84.397 15.77ZM94.2943 11.09H90.5143V18.5C90.5143 19.36 90.6743 19.98 90.9943 20.36C91.3143 20.72 91.8243 20.9 92.5243 20.9C92.7843 20.9 93.0643 20.87 93.3643 20.81C93.6643 20.75 93.9343 20.66 94.1743 20.54L94.2643 22.85C93.9243 22.97 93.5443 23.06 93.1243 23.12C92.7243 23.2 92.3043 23.24 91.8643 23.24C90.5243 23.24 89.4943 22.87 88.7743 22.13C88.0743 21.39 87.7243 20.28 87.7243 18.8V11.09H84.9943V8.78H87.7243V4.7H90.5143V8.78H94.2943V11.09ZM99.0573 23H96.2373V8.78H99.0573V23ZM99.5373 3.65C99.5373 4.17 99.3473 4.6 98.9673 4.94C98.6073 5.28 98.1673 5.45 97.6473 5.45C97.1273 5.45 96.6873 5.28 96.3273 4.94C95.9673 4.58 95.7873 4.15 95.7873 3.65C95.7873 3.13 95.9673 2.7 96.3273 2.36C96.6873 2 97.1273 1.82 97.6473 1.82C98.1673 1.82 98.6073 2 98.9673 2.36C99.3473 2.7 99.5373 3.13 99.5373 3.65ZM105.521 8.78C105.561 9.14 105.591 9.55 105.611 10.01C105.631 10.45 105.641 10.82 105.641 11.12H105.731C105.911 10.74 106.151 10.39 106.451 10.07C106.771 9.73 107.131 9.44 107.531 9.2C107.931 8.94 108.371 8.74 108.851 8.6C109.331 8.46 109.831 8.39 110.351 8.39C111.271 8.39 112.061 8.55 112.721 8.87C113.381 9.17 113.931 9.58 114.371 10.1C114.811 10.62 115.131 11.23 115.331 11.93C115.551 12.63 115.661 13.38 115.661 14.18V23H112.841V15.11C112.841 14.53 112.791 13.98 112.691 13.46C112.611 12.94 112.451 12.48 112.211 12.08C111.971 11.68 111.641 11.36 111.221 11.12C110.801 10.88 110.261 10.76 109.601 10.76C108.481 10.76 107.561 11.19 106.841 12.05C106.141 12.89 105.791 14.02 105.791 15.44V23H102.971V11.84C102.971 11.46 102.961 10.97 102.941 10.37C102.921 9.77 102.891 9.24 102.851 8.78H105.521ZM120.542 25.43C121.162 26.13 121.932 26.69 122.852 27.11C123.792 27.53 124.752 27.74 125.732 27.74C126.672 27.74 127.462 27.6 128.102 27.32C128.742 27.06 129.252 26.69 129.632 26.21C130.032 25.75 130.312 25.2 130.472 24.56C130.652 23.92 130.742 23.23 130.742 22.49V20.66H130.682C130.162 21.46 129.452 22.07 128.552 22.49C127.652 22.91 126.692 23.12 125.672 23.12C124.592 23.12 123.602 22.93 122.702 22.55C121.822 22.17 121.072 21.65 120.452 20.99C119.832 20.33 119.352 19.56 119.012 18.68C118.672 17.78 118.502 16.82 118.502 15.8C118.502 14.78 118.672 13.82 119.012 12.92C119.352 12.02 119.832 11.24 120.452 10.58C121.072 9.9 121.822 9.37 122.702 8.99C123.582 8.59 124.562 8.39 125.642 8.39C126.662 8.39 127.632 8.61 128.552 9.05C129.492 9.49 130.232 10.16 130.772 11.06H130.832V8.78H133.562V22.28C133.562 23.32 133.432 24.31 133.172 25.25C132.912 26.21 132.472 27.05 131.852 27.77C131.232 28.51 130.422 29.1 129.422 29.54C128.422 29.98 127.182 30.2 125.702 30.2C124.462 30.2 123.212 29.97 121.952 29.51C120.712 29.07 119.642 28.44 118.742 27.62L120.542 25.43ZM121.412 15.74C121.412 16.4 121.512 17.03 121.712 17.63C121.932 18.23 122.242 18.76 122.642 19.22C123.062 19.68 123.562 20.05 124.142 20.33C124.722 20.61 125.382 20.75 126.122 20.75C126.842 20.75 127.502 20.62 128.102 20.36C128.702 20.1 129.212 19.75 129.632 19.31C130.052 18.85 130.372 18.32 130.592 17.72C130.832 17.1 130.952 16.44 130.952 15.74C130.952 15.06 130.832 14.42 130.592 13.82C130.372 13.22 130.042 12.69 129.602 12.23C129.182 11.77 128.672 11.41 128.072 11.15C127.492 10.87 126.842 10.73 126.122 10.73C125.382 10.73 124.722 10.87 124.142 11.15C123.562 11.41 123.062 11.77 122.642 12.23C122.242 12.67 121.932 13.2 121.712 13.82C121.512 14.42 121.412 15.06 121.412 15.74Z" fill="#4A4A4A"/>
</svg>
