<svg width="216" height="36" viewBox="0 0 216 36" fill="none" xmlns="http://www.w3.org/2000/svg">
<path d="M1.19772 0.86853C5.85387 1.01986 8.98514 1.09552 10.5915 1.09552C11.6973 1.09552 12.8439 1.08388 14.0312 1.0606C15.2186 1.02568 16.336 0.984939 17.3837 0.938377C18.4313 0.891816 19.0657 0.86853 19.2869 0.86853C19.4848 1.04314 19.8456 2.23046 20.3694 4.43049C20.9049 6.63052 21.1726 7.94589 21.1726 8.37658C21.1726 8.45806 21.1261 8.57447 21.0329 8.72579C20.9515 8.86548 20.8176 9.02262 20.6313 9.19723C20.4567 9.36019 20.1948 9.49988 19.8456 9.61628C19.508 9.73268 19.1181 9.79089 18.6758 9.79089C18.5012 9.79089 18.3033 9.41839 18.0821 8.67341C17.8609 7.92842 17.6398 7.06703 17.4186 6.08924C17.1974 5.09981 17.0403 4.47705 16.9472 4.22096C16.0974 4.22096 14.6773 4.22679 12.6868 4.23843C10.7079 4.23843 9.13064 4.23843 7.95496 4.23843C7.78036 4.23843 7.64649 4.30244 7.55337 4.43049C7.46025 4.55853 7.40204 4.6924 7.37876 4.83208C7.36712 4.96013 7.3613 5.13474 7.3613 5.3559V11.9385C8.03645 11.7057 8.86873 11.4962 9.85817 11.31C10.8592 11.1237 11.773 11.0306 12.5995 11.0306C13.2979 11.0306 13.8566 11.211 14.2757 11.5719C14.6947 11.9211 14.9043 12.4856 14.9043 13.2655C14.9043 13.9174 14.6773 14.4645 14.2233 14.9068C13.781 15.3375 13.2572 15.5529 12.6519 15.5529C11.8138 14.4936 10.6148 13.964 9.05498 13.964C8.601 13.964 8.03645 14.0047 7.3613 14.0862V22.8514C7.3613 23.0842 7.36712 23.2704 7.37876 23.4101C7.40204 23.5382 7.46025 23.6662 7.55337 23.7943C7.64649 23.9223 7.78036 23.9863 7.95496 23.9863C9.22377 23.9863 10.9291 23.9922 13.0709 24.0038C15.2127 24.0038 16.7376 24.0038 17.6456 24.0038C17.762 23.7244 17.9657 23.0318 18.2567 21.926C18.5477 20.8085 18.8387 19.8307 19.1297 18.9926C19.4207 18.1545 19.6768 17.7355 19.898 17.7355C20.3403 17.7355 20.7303 17.7937 21.0679 17.9101C21.4171 18.0265 21.679 18.172 21.8536 18.3466C22.0398 18.5095 22.1737 18.6667 22.2552 18.818C22.3483 18.9577 22.3949 19.0683 22.3949 19.1498C22.3949 19.627 22.0747 21.0646 21.4345 23.4625C20.8059 25.8488 20.3811 27.1292 20.1599 27.3038C18.0064 27.1758 14.817 27.1118 10.5915 27.1118C6.90151 27.1118 3.77024 27.1758 1.19772 27.3038C0.883429 27.1176 0.650621 26.7451 0.499296 26.1864C0.347971 25.6276 0.272308 25.0514 0.272308 24.4578C0.272308 24.1784 0.464375 23.9689 0.848507 23.8292C1.23264 23.6895 1.69244 23.6197 2.22789 23.6197C2.68187 23.6197 2.9787 23.5265 3.11838 23.3403C3.25807 23.1424 3.32791 22.8689 3.32791 22.5196V5.65273C3.32791 5.30352 3.25807 5.03579 3.11838 4.84954C2.9787 4.65165 2.68187 4.55271 2.22789 4.55271C0.92417 4.55271 0.272308 4.25006 0.272308 3.64476C0.272308 3.07438 0.347971 2.51565 0.499296 1.96855C0.650621 1.40981 0.883429 1.04314 1.19772 0.86853Z" fill="white"/>
<path d="M29.7632 22.7292C29.7632 22.9038 29.769 23.0435 29.7807 23.1482C29.804 23.2414 29.8447 23.3519 29.9029 23.48C29.9728 23.608 30.0892 23.707 30.2521 23.7768C30.4151 23.835 30.6246 23.8641 30.8807 23.8641C31.323 23.8641 31.7014 23.934 32.0156 24.0736C32.3299 24.2133 32.4871 24.4228 32.4871 24.7022C32.4871 26.0641 32.295 26.9139 31.9109 27.2515C30.9098 27.1583 29.5712 27.1118 27.8949 27.1118C26.1023 27.1118 24.6938 27.1583 23.6695 27.2515C23.2854 26.9023 23.0933 26.0525 23.0933 24.7022C23.0933 24.4228 23.2504 24.2133 23.5647 24.0736C23.879 23.934 24.2573 23.8641 24.6997 23.8641C25.1536 23.8641 25.4505 23.771 25.5901 23.5847C25.7298 23.3869 25.7997 23.1133 25.7997 22.7641V6.00194C25.7997 5.385 25.6192 4.94849 25.2584 4.6924C24.9092 4.43631 24.2282 4.28499 23.2155 4.23843C23.0642 4.20351 22.9652 4.12784 22.9187 4.01144C22.8838 3.89503 22.8663 3.64476 22.8663 3.26063C22.8663 2.66697 22.9303 2.14315 23.0584 1.68918C23.1864 1.2352 23.3145 0.973292 23.4425 0.90345C24.4086 1.03149 25.3341 1.09552 26.2187 1.09552C26.7425 1.09552 27.2955 1.06642 27.8775 1.00822C28.4595 0.938375 28.768 0.90345 28.8029 0.90345C29.2103 0.90345 29.4722 1.00822 29.5886 1.21774C29.7167 1.41563 29.7807 1.88124 29.7807 2.61459C29.7807 2.63787 29.7807 2.67279 29.7807 2.71935C29.769 4.36065 29.7632 11.0306 29.7632 22.7292Z" fill="white"/>
<path d="M37.7427 5.37336C37.4633 5.37336 37.1782 5.35008 36.8871 5.30352C36.5961 5.24532 36.276 5.14638 35.9268 5.00669C35.5892 4.86701 35.3099 4.64584 35.0887 4.34319C34.8792 4.04054 34.7744 3.67968 34.7744 3.26063C34.7744 1.82886 35.7406 1.11298 37.6729 1.11298C38.22 1.11298 38.6798 1.18283 39.0523 1.32251C39.4364 1.46219 39.7158 1.64844 39.8904 1.88125C40.0766 2.11406 40.2047 2.34104 40.2745 2.56221C40.3443 2.78338 40.3793 3.022 40.3793 3.27809C40.3793 3.80191 40.2163 4.2326 39.8904 4.57018C39.5644 4.90775 39.2152 5.12891 38.8427 5.23367C38.4819 5.3268 38.1152 5.37336 37.7427 5.37336ZM40.6237 10.0004V22.7292C40.6237 22.9038 40.6295 23.0435 40.6412 23.1482C40.6644 23.2414 40.7052 23.3519 40.7634 23.48C40.8332 23.608 40.9496 23.707 41.1126 23.7768C41.2756 23.835 41.4851 23.8641 41.7412 23.8641C42.1835 23.8641 42.5618 23.934 42.8761 24.0736C43.1904 24.2133 43.3476 24.4228 43.3476 24.7022C43.3476 26.0641 43.1555 26.9139 42.7714 27.2515C41.7237 27.1583 40.4433 27.1118 38.93 27.1118C37.3586 27.1118 35.8919 27.1583 34.53 27.2515C34.1458 26.9023 33.9538 26.0525 33.9538 24.7022C33.9538 24.4228 34.1109 24.2133 34.4252 24.0736C34.7395 23.934 35.1178 23.8641 35.5601 23.8641C36.0141 23.8641 36.3109 23.771 36.4506 23.5847C36.5903 23.3869 36.6602 23.1133 36.6602 22.7641V13.3878C36.6602 12.7708 36.4797 12.3343 36.1189 12.0782C35.7697 11.8221 35.0887 11.6708 34.076 11.6242C33.9247 11.5893 33.8257 11.5137 33.7792 11.3973C33.7442 11.2809 33.7268 11.0306 33.7268 10.6465C33.7268 10.0528 33.7908 9.52898 33.9188 9.075C34.0469 8.62103 34.1749 8.35912 34.303 8.28928C35.1993 8.41732 36.0665 8.48135 36.9046 8.48135C37.4633 8.48135 38.0512 8.45224 38.6681 8.39404C39.2851 8.3242 39.611 8.28928 39.6459 8.28928C40.0533 8.28928 40.3152 8.39404 40.4316 8.60357C40.5597 8.80146 40.6237 9.26707 40.6237 10.0004Z" fill="white"/>
<path d="M51.3096 10.0004V10.9607C52.1477 10.0877 53.1488 9.37765 54.3128 8.83055C55.4885 8.27181 56.6467 7.99245 57.7875 7.99245C58.8235 7.99245 59.7605 8.24853 60.5986 8.76071C61.4484 9.27289 62.1293 10.0644 62.6415 11.1354C63.6775 10.2041 64.8357 9.45331 66.1161 8.88293C67.4082 8.30092 68.6421 8.00991 69.8178 8.00991C71.4009 8.00991 72.6871 8.5861 73.6766 9.7385C74.666 10.8909 75.1607 12.6952 75.1607 15.1513V22.6419C75.1607 23.3985 75.4576 23.8001 76.0512 23.8466C76.1676 23.8583 76.3248 23.8699 76.5227 23.8816C76.7322 23.8932 76.8951 23.9048 77.0116 23.9165C77.128 23.9281 77.2735 23.9456 77.4481 23.9689C77.6227 23.9805 77.7624 23.998 77.8671 24.0213C77.9719 24.0329 78.0883 24.0562 78.2163 24.0911C78.3444 24.1144 78.4433 24.1435 78.5132 24.1784C78.5947 24.2133 78.6703 24.2541 78.7402 24.3006C78.81 24.3472 78.8565 24.4054 78.8798 24.4752C78.9148 24.5334 78.9322 24.6033 78.9322 24.6848C78.9322 26.0467 78.7402 26.9023 78.356 27.2515C76.9941 27.1583 75.8184 27.1118 74.829 27.1118C74.2586 27.1118 73.6708 27.1351 73.0655 27.1816C72.4602 27.2282 72.0411 27.2515 71.8083 27.2515C71.4009 27.2515 71.1972 26.8033 71.1972 25.907V15.4656C71.1972 13.9523 70.9527 12.8465 70.4638 12.1481C69.9749 11.438 69.3347 11.083 68.5432 11.083C67.7516 11.083 66.8786 11.3216 65.9241 11.7989C64.9696 12.2645 64.0733 12.8698 63.2352 13.6148C63.2934 14.1386 63.3225 14.6507 63.3225 15.1513V22.6419C63.3225 23.3985 63.6135 23.8001 64.1955 23.8466C64.3119 23.8583 64.4632 23.8699 64.6495 23.8816C64.8473 23.8932 64.9987 23.9048 65.1034 23.9165C65.2198 23.9281 65.3595 23.9456 65.5225 23.9689C65.6855 23.9805 65.8135 23.998 65.9066 24.0213C65.9997 24.0329 66.1045 24.0562 66.2209 24.0911C66.349 24.1144 66.4479 24.1435 66.5177 24.1784C66.5876 24.2133 66.6516 24.2541 66.7098 24.3006C66.7797 24.3472 66.8262 24.4054 66.8495 24.4752C66.8844 24.5334 66.9019 24.6033 66.9019 24.6848C66.9019 26.0467 66.7098 26.9023 66.3257 27.2515C65.2082 27.1583 64.1838 27.1118 63.2526 27.1118C62.6706 27.1118 62.0304 27.1351 61.332 27.1816C60.6335 27.2282 60.1737 27.2515 59.9526 27.2515C59.5568 27.2515 59.3589 26.8033 59.3589 25.907V15.4656C59.3589 13.9523 59.1145 12.8465 58.6256 12.1481C58.1367 11.438 57.4964 11.083 56.7049 11.083C55.9134 11.083 55.0461 11.3274 54.1033 11.8163C53.1604 12.3052 52.2816 12.9338 51.4667 13.7021V22.7292C51.4667 22.8921 51.4784 23.0318 51.5016 23.1482C51.5249 23.253 51.5715 23.3694 51.6413 23.4974C51.7112 23.6138 51.8276 23.707 51.9905 23.7768C52.1651 23.835 52.3805 23.8641 52.6366 23.8641C53.0789 23.8641 53.4572 23.934 53.7715 24.0736C54.0858 24.2133 54.243 24.4228 54.243 24.7022C54.243 26.0641 54.0509 26.9139 53.6668 27.2515C52.526 27.1583 51.1175 27.1118 49.4413 27.1118C47.637 27.1118 46.2984 27.1583 45.4254 27.2515C45.0412 26.9023 44.8492 26.0525 44.8492 24.7022C44.8492 24.4228 45.0063 24.2133 45.3206 24.0736C45.6349 23.934 46.0132 23.8641 46.4555 23.8641C46.8629 23.8641 47.1365 23.7826 47.2762 23.6197C47.4275 23.4567 47.5032 23.1715 47.5032 22.7641V13.3878C47.5032 12.7708 47.3227 12.3343 46.9619 12.0782C46.6127 11.8221 45.9317 11.6708 44.919 11.6242C44.7677 11.5893 44.6687 11.5137 44.6222 11.3973C44.5873 11.2809 44.5698 11.0306 44.5698 10.6465C44.5698 10.0528 44.6338 9.52898 44.7619 9.075C44.8899 8.62103 45.018 8.35912 45.146 8.28928C46.0423 8.41732 46.9095 8.48135 47.7476 8.48135C48.2714 8.48135 48.8244 8.45224 49.4064 8.39404C49.9884 8.3242 50.2969 8.28928 50.3318 8.28928C50.7392 8.28928 51.0011 8.39404 51.1175 8.60357C51.2456 8.80146 51.3096 9.26707 51.3096 10.0004Z" fill="white"/>
<path d="M85.0016 27.461H86.6953C86.9746 27.461 87.19 27.4377 87.3413 27.3911C87.4926 27.3562 87.5857 27.3155 87.6207 27.2689C87.6672 27.2107 87.7021 27.1292 87.7254 27.0245L88.0223 25.2959C89.0466 26.0641 90.1874 26.6636 91.4445 27.0943C92.7133 27.525 93.988 27.7404 95.2684 27.7404C96.4674 27.7404 97.5848 27.6007 98.6208 27.3213C99.6685 27.0419 100.611 26.6229 101.449 26.0641C102.299 25.5054 102.969 24.7488 103.457 23.7943C103.946 22.8281 104.191 21.7223 104.191 20.4768C104.191 19.3826 103.999 18.4048 103.615 17.5434C103.242 16.6704 102.736 15.9545 102.095 15.3957C101.455 14.837 100.722 14.3423 99.8954 13.9116C99.069 13.4809 98.196 13.12 97.2764 12.829C96.3568 12.538 95.4372 12.2645 94.5176 12.0084C93.598 11.7523 92.725 11.4904 91.8985 11.2227C91.072 10.9549 90.3387 10.6581 89.6985 10.3322C89.0583 9.99459 88.5461 9.56972 88.1619 9.05754C87.7894 8.54536 87.6032 7.95752 87.6032 7.29402C87.6032 6.16491 88.0164 5.27442 88.8429 4.62255C89.6694 3.97069 90.9033 3.64476 92.5445 3.64476C94.4885 3.64476 96.1007 4.13948 97.3811 5.12891C98.6616 6.1067 99.5171 7.35804 99.9478 8.88293H100.384C100.966 8.88293 101.56 8.82473 102.165 8.70833C102.782 8.59193 103.091 8.4406 103.091 8.25435C103.091 6.88079 102.724 4.57017 101.991 1.32251C101.234 1.2643 100.681 1.2352 100.332 1.2352C99.9362 1.2352 99.6626 1.24102 99.5113 1.25266C99.36 1.25266 99.2319 1.28758 99.1272 1.35743C99.0341 1.42727 98.9875 1.50293 98.9875 1.58441C98.9875 1.6659 98.9526 1.81722 98.8827 2.03839C98.8245 2.25956 98.7372 2.48654 98.6208 2.71935C96.898 1.48547 94.8028 0.86853 92.335 0.86853C90.7519 0.86853 89.2852 1.11298 87.935 1.60187C86.5963 2.07913 85.4847 2.84158 84.6 3.88921C83.7153 4.9252 83.273 6.15908 83.273 7.59085C83.273 8.70833 83.4592 9.69776 83.8317 10.5592C84.2159 11.4205 84.7222 12.1248 85.3508 12.6719C85.991 13.2073 86.7185 13.6788 87.5334 14.0862C88.3598 14.4936 89.227 14.8312 90.135 15.0989C91.0546 15.3666 91.9683 15.6227 92.8763 15.8672C93.7959 16.1116 94.6631 16.3735 95.4779 16.6529C96.3044 16.9323 97.0319 17.2582 97.6605 17.6307C98.3007 17.9915 98.8071 18.4688 99.1796 19.0625C99.5637 19.6445 99.7558 20.3254 99.7558 21.1053C99.7558 22.2694 99.3309 23.154 98.4811 23.7593C97.643 24.353 96.5547 24.6498 95.216 24.6498C94.4827 24.6498 93.7202 24.5451 92.9287 24.3355C92.1488 24.1144 91.363 23.7943 90.5715 23.3752C89.7916 22.9562 89.0699 22.38 88.4064 21.6466C87.7429 20.9133 87.2249 20.0752 86.8524 19.1323C86.7127 19.0974 86.5265 19.0799 86.2937 19.0799C85.7233 19.0799 85.1762 19.1672 84.6524 19.3418C84.1285 19.5164 83.8666 19.7376 83.8666 20.0053C83.8666 21.6815 84.245 24.1668 85.0016 27.461Z" fill="white"/>
<path fill-rule="evenodd" clip-rule="evenodd" d="M111.943 29.9753V25.68C113.456 27.0536 115.371 27.7404 117.688 27.7404C118.852 27.7404 119.969 27.5308 121.04 27.1118C122.111 26.6927 123.071 26.0874 123.921 25.2959C124.783 24.5043 125.469 23.4742 125.982 22.2054C126.494 20.9249 126.75 19.499 126.75 17.9275C126.75 16.3561 126.494 14.9359 125.982 13.6671C125.481 12.3983 124.806 11.374 123.956 10.5941C123.106 9.80253 122.152 9.19723 121.093 8.77817C120.045 8.35912 118.945 8.14959 117.793 8.14959C116.605 8.14959 115.459 8.43478 114.353 9.00516C113.247 9.5639 112.391 10.3671 111.786 11.4147V10.1576C111.786 9.42421 111.722 8.9586 111.594 8.76071C111.478 8.55118 111.216 8.44642 110.808 8.44642C110.773 8.44642 110.465 8.48134 109.883 8.55118C109.301 8.60939 108.748 8.63849 108.224 8.63849C107.386 8.63849 106.519 8.57446 105.623 8.44642C105.494 8.51626 105.366 8.77817 105.238 9.23215C105.11 9.68612 105.046 10.2099 105.046 10.8036C105.046 11.1877 105.064 11.438 105.099 11.5544C105.145 11.6708 105.244 11.7465 105.396 11.7814C106.408 11.828 107.089 11.9793 107.438 12.2354C107.799 12.4915 107.98 12.928 107.98 13.5449V30.0102C107.98 30.3594 107.91 30.6272 107.77 30.8134C107.63 31.0113 107.334 31.1102 106.88 31.1102C106.437 31.1102 106.059 31.1801 105.745 31.3198C105.43 31.4595 105.273 31.669 105.273 31.9484C105.273 33.2986 105.465 34.1484 105.85 34.4976C106.723 34.323 108.154 34.2357 110.145 34.2357C111.996 34.2357 113.311 34.323 114.091 34.4976C114.475 34.16 114.667 33.3103 114.667 31.9484C114.667 31.669 114.51 31.4595 114.196 31.3198C113.881 31.1801 113.503 31.1102 113.061 31.1102C112.805 31.1102 112.595 31.0753 112.432 31.0055C112.269 30.9473 112.153 30.8542 112.083 30.7261C112.025 30.5981 111.984 30.4817 111.961 30.3769C111.949 30.2838 111.943 30.1499 111.943 29.9753ZM111.943 22.3276V17.0719C111.943 15.2095 112.473 13.7544 113.532 12.7068C114.591 11.6475 115.819 11.1179 117.216 11.1179C118.706 11.1179 119.981 11.7174 121.04 12.9163C122.111 14.1036 122.647 15.774 122.647 17.9275C122.647 20.1741 122.152 21.8794 121.162 23.0435C120.185 24.2075 118.957 24.7895 117.478 24.7895C116.396 24.7895 115.354 24.5742 114.353 24.1435C113.363 23.7128 112.56 23.1075 111.943 22.3276Z" fill="white"/>
<path d="M134.432 10.1576V11.2925C134.956 10.4544 135.736 9.72104 136.772 9.09246C137.808 8.46388 138.798 8.14959 139.74 8.14959C140.357 8.14959 140.945 8.25435 141.504 8.46388C142.063 8.66177 142.546 9.02262 142.953 9.54644C143.372 10.0703 143.582 10.7105 143.582 11.4671C143.582 13.5391 142.482 14.5751 140.282 14.5751C140.235 14.5751 140.189 14.5693 140.142 14.5576C140.096 14.546 140.055 14.5285 140.02 14.5052L139.95 14.4354C139.927 14.4121 139.903 14.3772 139.88 14.3306C139.869 14.2841 139.857 14.2433 139.845 14.2084C139.834 14.1735 139.822 14.1211 139.81 14.0513C139.799 13.9698 139.787 13.9058 139.775 13.8592C139.775 13.8126 139.77 13.7486 139.758 13.6671C139.758 13.574 139.752 13.4983 139.74 13.4401L139.531 11.6242C139.217 11.4729 138.873 11.3973 138.501 11.3973C137.826 11.3973 137.145 11.6475 136.458 12.1481C135.783 12.637 135.282 13.2073 134.956 13.8592V22.6943C134.956 22.8689 134.962 23.0085 134.974 23.1133C134.997 23.2064 135.038 23.317 135.096 23.4451C135.166 23.5731 135.282 23.672 135.445 23.7419C135.608 23.8001 135.818 23.8292 136.074 23.8292C136.516 23.8292 136.894 23.899 137.209 24.0387C137.523 24.1784 137.68 24.3879 137.68 24.6673C137.68 25.226 137.587 25.779 137.401 26.3261C137.215 26.8731 136.941 27.234 136.58 27.4086C135.765 27.3155 134.572 27.2689 133.001 27.2689C131.429 27.2689 130.224 27.3155 129.386 27.4086C129.002 27.234 128.723 26.879 128.548 26.3435C128.374 25.7964 128.286 25.2377 128.286 24.6673C128.286 24.3879 128.443 24.1784 128.758 24.0387C129.072 23.899 129.45 23.8292 129.893 23.8292C130.347 23.8292 130.644 23.7361 130.783 23.5498C130.923 23.3519 130.993 23.0784 130.993 22.7292V13.5449C130.993 12.928 130.812 12.4915 130.451 12.2354C130.102 11.9793 129.421 11.828 128.409 11.7814C128.257 11.7465 128.158 11.6708 128.112 11.5544C128.077 11.438 128.059 11.1877 128.059 10.8036C128.059 10.2099 128.123 9.68612 128.251 9.23215C128.379 8.77817 128.508 8.51626 128.636 8.44642C129.462 8.57446 130.271 8.63849 131.063 8.63849C131.551 8.63849 132.064 8.60939 132.599 8.55118C133.146 8.48134 133.437 8.44642 133.472 8.44642C133.88 8.44642 134.141 8.55118 134.258 8.76071C134.374 8.9586 134.432 9.42421 134.432 10.1576Z" fill="white"/>
<path d="M174.714 27.2689C175.622 27.2689 176.641 27.3155 177.77 27.4086C178.154 27.0594 178.346 26.2096 178.346 24.8594C178.346 24.7779 178.328 24.708 178.293 24.6498C178.27 24.58 178.224 24.5218 178.154 24.4752C178.096 24.4287 178.032 24.3879 177.962 24.353C177.892 24.3181 177.793 24.289 177.665 24.2657C177.548 24.2308 177.444 24.2075 177.351 24.1959C177.257 24.1726 177.129 24.1551 176.966 24.1435C176.803 24.1202 176.664 24.1027 176.547 24.0911C176.443 24.0795 176.291 24.0678 176.093 24.0562C175.907 24.0445 175.756 24.0329 175.639 24.0213C175.057 23.9747 174.766 23.5731 174.766 22.8165V15.3084C174.766 12.8407 174.26 11.0306 173.247 9.87819C172.235 8.72579 170.913 8.14959 169.284 8.14959C168.108 8.14959 166.886 8.42314 165.617 8.97024C164.348 9.51734 163.213 10.2332 162.212 11.1179V10.6115C162.224 10.3904 162.23 10.239 162.23 10.1576C162.23 9.42421 162.166 8.9586 162.038 8.76071C161.921 8.55118 161.659 8.44642 161.252 8.44642C161.217 8.44642 160.909 8.48134 160.327 8.55118C159.744 8.60939 159.192 8.63849 158.668 8.63849C157.934 8.63849 157.184 8.57446 156.415 8.44642C156.287 8.51626 156.159 8.77817 156.031 9.23215C155.903 9.68612 155.839 10.2099 155.839 10.8036C155.839 11.1877 155.857 11.438 155.892 11.5544C155.938 11.6708 156.037 11.7465 156.188 11.7814C157.201 11.828 157.882 11.9793 158.231 12.2354C158.592 12.4915 158.773 12.928 158.773 13.5449V22.9212C158.773 23.2704 158.703 23.544 158.563 23.7419C158.423 23.9281 158.126 24.0213 157.673 24.0213C157.23 24.0213 156.852 24.0911 156.538 24.2308C156.223 24.3705 156.066 24.58 156.066 24.8594C156.066 26.2096 156.258 27.0594 156.642 27.4086C157.515 27.3155 158.93 27.2689 160.885 27.2689C162.841 27.2689 164.174 27.3155 164.884 27.4086C165.268 27.071 165.46 26.2213 165.46 24.8594C165.46 24.58 165.303 24.3705 164.988 24.2308C164.674 24.0911 164.296 24.0213 163.854 24.0213C163.597 24.0213 163.388 23.9922 163.225 23.934C163.062 23.8641 162.946 23.7652 162.876 23.6371C162.818 23.5091 162.777 23.3985 162.754 23.3054C162.742 23.2006 162.736 23.0609 162.736 22.8863V13.6846C163.586 12.9745 164.494 12.3925 165.46 11.9385C166.438 11.4729 167.334 11.2401 168.149 11.2401C168.94 11.2401 169.581 11.5951 170.07 12.3052C170.558 13.0036 170.803 14.1095 170.803 15.6227V26.0816C170.803 26.9663 171.001 27.4086 171.397 27.4086C171.618 27.4086 172.077 27.3853 172.776 27.3388C173.474 27.2922 174.12 27.2689 174.714 27.2689Z" fill="white"/>
<path fill-rule="evenodd" clip-rule="evenodd" d="M197.902 29.5388C197.902 30.5748 197.727 31.4711 197.378 32.2277C197.029 32.996 196.569 33.6071 195.998 34.0611C195.428 34.5267 194.701 34.8992 193.816 35.1786C192.943 35.4579 192.047 35.6442 191.127 35.7373C190.219 35.8421 189.171 35.8944 187.984 35.8944C185.796 35.8944 183.927 35.6442 182.379 35.1436C180.843 34.6547 180.074 33.9971 180.074 33.1706C180.074 31.4711 180.552 29.5504 181.506 27.4086C180.168 26.9546 179.498 26.0118 179.498 24.58C179.498 23.2064 180.348 21.8212 182.047 20.4244C181.186 19.7842 180.534 19.0217 180.092 18.137C179.661 17.2524 179.446 16.3328 179.446 15.3783C179.446 14.4703 179.65 13.5857 180.057 12.7243C180.464 11.8512 181.023 11.0771 181.733 10.402C182.443 9.72686 183.322 9.18559 184.37 8.77817C185.417 8.35912 186.541 8.14959 187.74 8.14959C188.752 8.14959 189.608 8.23689 190.306 8.4115C191.005 8.58611 191.68 8.87129 192.332 9.26707C192.343 9.25543 192.466 9.12156 192.698 8.86547C192.931 8.60939 193.147 8.39404 193.344 8.21943C193.554 8.04483 193.828 7.84112 194.165 7.60831C194.503 7.37551 194.887 7.2009 195.317 7.0845C195.76 6.95645 196.22 6.89243 196.697 6.89243C197.465 6.89243 197.948 6.97973 198.146 7.15434C198.344 7.3173 198.443 7.64905 198.443 8.14959V8.44642C198.443 8.70251 198.437 8.91204 198.425 9.075C198.425 9.23797 198.396 9.39511 198.338 9.54644C198.28 9.68612 198.228 9.79671 198.181 9.87819C198.134 9.95967 198.036 10.0353 197.884 10.1052C197.733 10.175 197.593 10.2274 197.465 10.2623C197.349 10.2856 197.139 10.3089 196.837 10.3322C196.546 10.3554 196.278 10.3671 196.033 10.3671H194.986C194.881 10.3671 194.706 10.3613 194.462 10.3496C194.229 10.338 194.049 10.3322 193.921 10.3322C194.712 10.8676 195.341 11.6068 195.806 12.5497C196.272 13.4925 196.505 14.5169 196.505 15.6227C196.505 17.4735 195.76 19.0217 194.27 20.2672C192.792 21.5128 190.749 22.1355 188.141 22.1355C187.559 22.1355 186.995 22.0948 186.448 22.0133C185.9 21.9202 185.4 21.8154 184.946 21.699C184.492 21.571 184.259 21.5069 184.247 21.5069C183.863 22.2752 183.671 23.0376 183.671 23.7943C183.671 24.1551 183.933 24.4112 184.457 24.5625C184.981 24.7139 185.662 24.7953 186.5 24.807C187.338 24.8186 188.258 24.8244 189.259 24.8244C190.271 24.8128 191.284 24.8652 192.297 24.9816C193.31 25.098 194.235 25.2959 195.073 25.5752C195.911 25.8546 196.592 26.3319 197.116 27.007C197.64 27.6705 197.902 28.5144 197.902 29.5388ZM187.949 19.1672C188.857 19.1672 189.643 19.0625 190.306 18.8529C190.97 18.6318 191.482 18.3349 191.843 17.9624C192.204 17.5783 192.466 17.1709 192.629 16.7402C192.803 16.2979 192.89 15.8148 192.89 15.291C192.89 14.1386 192.477 13.1491 191.651 12.3227C190.836 11.4962 189.625 11.083 188.019 11.083C186.424 11.083 185.225 11.4904 184.422 12.3052C183.619 13.1084 183.217 14.0978 183.217 15.2735C183.217 16.3677 183.596 17.2931 184.352 18.0497C185.121 18.7947 186.319 19.1672 187.949 19.1672ZM185.941 28.0197C184.684 27.9382 183.805 27.8335 183.305 27.7054V28.8229C183.316 29.079 183.334 29.4108 183.357 29.8182C183.392 30.2372 183.438 30.5573 183.497 30.7785C183.567 30.9997 183.66 31.2325 183.776 31.4769C183.892 31.733 184.044 31.9251 184.23 32.0531C184.416 32.1812 184.637 32.2685 184.894 32.315C186.36 32.5828 187.693 32.7166 188.892 32.7166C189.87 32.7166 190.685 32.6468 191.336 32.5071C192 32.3791 192.501 32.187 192.838 31.9309C193.187 31.6748 193.426 31.3896 193.554 31.0753C193.694 30.7727 193.764 30.406 193.764 29.9753C193.764 28.6716 192.291 28.0197 189.346 28.0197H185.941Z" fill="white"/>
<path d="M214.454 25.5752C215.176 24.7953 215.537 23.8175 215.537 22.6419C215.537 21.6757 215.322 20.8201 214.891 20.0752C214.472 19.3185 213.925 18.7132 213.25 18.2593C212.574 17.8053 211.829 17.4037 211.015 17.0545C210.2 16.6936 209.385 16.3852 208.57 16.1291C207.755 15.873 207.01 15.6169 206.335 15.3608C205.66 15.0931 205.107 14.773 204.676 14.4005C204.257 14.028 204.048 13.5973 204.048 13.1084C204.048 12.4333 204.333 11.8745 204.903 11.4322C205.485 10.9898 206.37 10.7687 207.557 10.7687C208.163 10.7687 208.884 10.8676 209.722 11.0655C210.572 11.2634 211.079 11.4438 211.242 11.6068L211.486 14.0513C211.486 14.0978 211.492 14.1851 211.503 14.3132C211.527 14.4296 211.538 14.5052 211.538 14.5402C211.55 14.5751 211.567 14.6333 211.591 14.7148C211.626 14.7846 211.661 14.837 211.696 14.8719C211.742 14.8952 211.8 14.9185 211.87 14.9418C211.952 14.965 212.051 14.9767 212.167 14.9767C212.784 14.9767 213.302 14.8894 213.721 14.7148C214.152 14.5285 214.454 14.2957 214.629 14.0163C214.815 13.737 214.937 13.4925 214.996 13.283C215.065 13.0735 215.1 12.8756 215.1 12.6893C215.1 9.66284 212.493 8.14959 207.278 8.14959C206.009 8.14959 204.816 8.31838 203.699 8.65595C202.593 8.99352 201.656 9.54062 200.887 10.2972C200.119 11.0539 199.735 11.9502 199.735 12.9862C199.735 13.7894 199.904 14.5111 200.241 15.1513C200.579 15.7915 201.021 16.3095 201.568 16.7053C202.115 17.101 202.738 17.4677 203.437 17.8053C204.147 18.1429 204.863 18.4222 205.584 18.6434C206.318 18.8646 207.034 19.109 207.732 19.3767C208.442 19.6328 209.071 19.8889 209.618 20.145C210.165 20.4011 210.607 20.7387 210.945 21.1577C211.282 21.5651 211.451 22.0308 211.451 22.5546C211.451 23.2996 211.114 23.8874 210.438 24.3181C209.775 24.7371 208.931 24.9467 207.907 24.9467C207.045 24.9467 206.19 24.8826 205.34 24.7546C204.502 24.6266 203.867 24.4461 203.437 24.2133V21.8387C203.437 21.4778 203.384 21.2334 203.28 21.1053C203.175 20.9773 202.959 20.9133 202.633 20.9133C200.596 20.9133 199.578 21.7456 199.578 23.4101C199.578 24.8768 200.27 25.9652 201.656 26.6753C203.053 27.3853 204.985 27.7404 207.453 27.7404C209.059 27.7404 210.45 27.5716 211.626 27.234C212.801 26.8964 213.744 26.3435 214.454 25.5752Z" fill="white"/>
<path d="M148.123 5.45906C148.414 5.50562 148.699 5.5289 148.979 5.5289C149.351 5.5289 149.718 5.48234 150.079 5.38922C150.451 5.28446 150.8 5.06329 151.126 4.72572C151.452 4.38815 151.615 3.95745 151.615 3.43364C151.615 3.17755 151.58 2.93892 151.51 2.71775C151.441 2.49658 151.313 2.2696 151.126 2.03679C150.952 1.80398 150.672 1.61774 150.288 1.47805C149.916 1.33837 149.456 1.26852 148.909 1.26852C146.977 1.26852 146.01 1.98441 146.01 3.41618C146.01 3.83523 146.115 4.19608 146.325 4.49873C146.546 4.80138 146.825 5.02255 147.163 5.16223C147.512 5.30192 147.832 5.40086 148.123 5.45906Z" fill="white"/>
<path d="M151.86 22.8847V10.156C151.86 9.42262 151.796 8.957 151.668 8.75911C151.551 8.54958 151.289 8.44482 150.882 8.44482C150.847 8.44482 150.521 8.47974 149.904 8.54959C149.287 8.60779 148.699 8.63689 148.141 8.63689C147.302 8.63689 146.435 8.57287 145.539 8.44482C145.411 8.51466 145.283 8.77657 145.155 9.23055C145.027 9.68452 144.963 10.2083 144.963 10.802C144.963 11.1861 144.98 11.4364 145.015 11.5528C145.062 11.6692 145.161 11.7449 145.312 11.7798C146.325 11.8264 147.006 11.9777 147.355 12.2338C147.716 12.4899 147.896 12.9264 147.896 13.5433V22.9196C147.896 23.2689 147.826 23.5424 147.687 23.7403C147.547 23.9265 147.25 24.0197 146.796 24.0197C146.354 24.0197 145.975 24.0895 145.661 24.2292C145.347 24.3689 145.19 24.5784 145.19 24.8578C145.19 26.208 145.382 27.0578 145.766 27.407C147.128 27.3139 148.595 27.2673 150.166 27.2673C151.679 27.2673 152.96 27.3139 154.007 27.407C154.391 27.0694 154.584 26.2197 154.584 24.8578C154.584 24.5784 154.426 24.3689 154.112 24.2292C153.798 24.0895 153.42 24.0197 152.977 24.0197C152.721 24.0197 152.512 23.9906 152.349 23.9324C152.186 23.8625 152.069 23.7636 151.999 23.6355C151.941 23.5075 151.9 23.3969 151.877 23.3038C151.866 23.199 151.86 23.0593 151.86 22.8847Z" fill="white"/>
</svg>
