<svg width="65" height="64" viewBox="0 0 65 64" fill="rgba(0, 0, 0, 0.7)" xmlns="http://www.w3.org/2000/svg">
<path fill-rule="evenodd" clip-rule="evenodd" d="M64.025 56.327C64.0892 57.1757 63.8147 58.0151 63.2614 58.6619C62.7081 59.3086 61.9211 59.7101 61.0721 59.7787L7.66382 63.9364C6.81452 64.0002 5.97421 63.7256 5.3265 63.1725C4.67878 62.6194 4.27632 61.8328 4.20706 60.9845L0.00919444 7.61839C-0.0550526 6.76983 0.219308 5.93056 0.772372 5.28385C1.32544 4.63713 2.11228 4.2355 2.9611 4.16663L56.3693 0.00900994C57.2187 -0.0545749 58.059 0.220281 58.7067 0.773545C59.3544 1.32681 59.7568 2.11352 59.8261 2.96186L64.025 56.327ZM9.99692 13H53.9969V19H9.99692V13ZM35 34V50.0041H41V23H35.6958L25.5 39.7811L15.2649 23H10V50.0041H15.9721L16 34L24 47H27L35 34Z" />
</svg>
