<svg id="Group_154" data-name="Group 154" xmlns="http://www.w3.org/2000/svg" width="302.853" height="47.262" viewBox="0 0 302.853 47.262" fill="#000">
  <path id="Path_266" data-name="Path 266" d="M172.3,24.4a9.112,9.112,0,0,1,9.5,9.384,9.5,9.5,0,0,1-19,0A9.144,9.144,0,0,1,172.3,24.4Zm0,3.469c-3.356,0-5.517,2.559-5.517,5.972,0,3.356,2.161,5.972,5.517,5.972s5.517-2.616,5.517-5.972C177.815,30.429,175.653,27.869,172.3,27.869Z" transform="translate(-162.8 -24.4)"/>
  <path id="Path_267" data-name="Path 267" d="M204.1,37.367a8.191,8.191,0,0,0,5.8,2.446c2.1,0,3.185-1.024,3.185-2.047,0-1.365-1.592-1.82-3.7-2.332-2.957-.682-6.768-1.479-6.768-5.574,0-3.014,2.616-5.46,6.882-5.46a10.006,10.006,0,0,1,7.109,2.559L214.455,29.8a7.736,7.736,0,0,0-5.232-1.991c-1.763,0-2.673.739-2.673,1.877,0,1.251,1.536,1.592,3.64,2.1,3.014.682,6.825,1.592,6.825,5.63,0,3.3-2.389,5.858-7.28,5.858a10.688,10.688,0,0,1-7.735-2.9Z" transform="translate(-179.706 -24.4)"/>
  <path id="Path_268" data-name="Path 268" d="M248.555,35.522h-8.588v7.621H236.1V25h3.867v7.166h8.588V25h3.924V43.2h-3.924Z" transform="translate(-194.412 -24.659)"/>
  <path id="Path_269" data-name="Path 269" d="M274.3,25h12.854v3.3h-8.986v3.924h8.815v3.3h-8.815v4.266h8.986v3.356H274.3Z" transform="translate(-210.886 -24.659)"/>
  <path id="Path_270" data-name="Path 270" d="M312.111,36.659h-2.844V43.2H305.4V25h8.531c3.811,0,6.086,2.5,6.086,5.858a5.172,5.172,0,0,1-3.981,5.4L320.13,43.2h-4.436Zm1.251-8.36h-4.038v5h4.038a2.512,2.512,0,1,0,0-5Z" transform="translate(-224.298 -24.659)"/>
  <path id="Path_271" data-name="Path 271" d="M354.8,25h3.867V39.787h7.678V43.2H354.8Z" transform="translate(-245.602 -24.659)"/>
  <path id="Path_272" data-name="Path 272" d="M383.1,25h3.867V43.2H383.1Z" transform="translate(-257.807 -24.659)"/>
  <path id="Path_273" data-name="Path 273" d="M399.3,25h12.91v3.3h-8.986v3.924h8.815v3.3h-8.815v7.564h-3.867V25Z" transform="translate(-264.794 -24.659)"/>
  <path id="Path_274" data-name="Path 274" d="M429.9,25h12.854v3.3h-8.986v3.924h8.815v3.3h-8.815v4.266h8.986v3.356H429.9Z" transform="translate(-277.99 -24.659)"/>
  <path id="Path_275" data-name="Path 275" d="M461,25h3.867V39.787h7.678V43.2H461Z" transform="translate(-291.403 -24.659)"/>
  <path id="Path_276" data-name="Path 276" d="M495.9,24.4a9.112,9.112,0,0,1,9.5,9.384,9.5,9.5,0,0,1-19,0A9.112,9.112,0,0,1,495.9,24.4Zm0,3.469c-3.355,0-5.517,2.559-5.517,5.972,0,3.356,2.161,5.972,5.517,5.972s5.517-2.616,5.517-5.972C501.415,30.429,499.253,27.869,495.9,27.869Z" transform="translate(-302.357 -24.4)"/>
  <path id="Path_277" data-name="Path 277" d="M531.567,30.972V43.2H527.7V25h3.981L540.1,36.773V25h3.867V43.2h-3.754Z" transform="translate(-320.168 -24.659)"/>
  <path id="Path_278" data-name="Path 278" d="M573.925,24.4a8.451,8.451,0,0,1,7.507,3.981l-3.242,1.763a5.088,5.088,0,0,0-4.322-2.275,5.669,5.669,0,0,0-5.687,5.972,5.669,5.669,0,0,0,5.687,5.972,6.331,6.331,0,0,0,3.924-1.365V36.23h-4.834v-3.3H581.6V39.87a10.179,10.179,0,0,1-7.735,3.412c-5.289,0-9.669-3.7-9.669-9.441C564.257,28.1,568.636,24.4,573.925,24.4Z" transform="translate(-335.909 -24.4)"/>
  <path id="Path_279" data-name="Path 279" d="M164.4,74.9h3.867V89.687h7.678V93.1H164.4Z" transform="translate(-163.49 -46.179)"/>
  <path id="Path_280" data-name="Path 280" d="M192.6,74.9h12.853v3.3h-8.986v3.924h8.815v3.3h-8.815V89.63h8.986v3.356H192.6Z" transform="translate(-175.652 -46.179)"/>
  <path id="Path_281" data-name="Path 281" d="M233.836,89.872H225.7L224.566,93H220.3l7.052-18.2h4.834l7,18.2h-4.209Zm-7.109-3.356h6.029l-3.014-8.36Z" transform="translate(-187.598 -46.136)"/>
  <path id="Path_282" data-name="Path 282" d="M266.311,86.559h-2.844V93.1H259.6V74.9h8.531c3.811,0,6.085,2.5,6.085,5.858a5.172,5.172,0,0,1-3.981,5.4L274.33,93.1h-4.436Zm1.251-8.36h-4.038v5h4.038a2.512,2.512,0,1,0,0-5Z" transform="translate(-204.546 -46.179)"/>
  <path id="Path_283" data-name="Path 283" d="M297.467,80.872V93.1H293.6V74.9h3.981L306,86.673V74.9h3.867V93.1h-3.754Z" transform="translate(-219.209 -46.179)"/>
  <path id="Path_284" data-name="Path 284" d="M331.7,74.9h3.867V93.1H331.7Z" transform="translate(-235.64 -46.179)"/>
  <path id="Path_285" data-name="Path 285" d="M351.867,80.872V93.1H348V74.9h3.981L360.4,86.673V74.9h3.867V93.1h-3.754Z" transform="translate(-242.67 -46.179)"/>
  <path id="Path_286" data-name="Path 286" d="M394.269,74.3a8.451,8.451,0,0,1,7.507,3.981l-3.242,1.763a5.088,5.088,0,0,0-4.322-2.275,5.979,5.979,0,0,0,0,11.943,6.33,6.33,0,0,0,3.924-1.365V86.073h-4.777v-3.3H402v6.939a10.179,10.179,0,0,1-7.735,3.412c-5.289,0-9.669-3.7-9.669-9.441C384.6,78,388.979,74.3,394.269,74.3Z" transform="translate(-258.454 -45.92)"/>
  <path id="Path_287" data-name="Path 287" d="M439.2,74.9h3.867V93.1H439.2Z" transform="translate(-282.001 -46.179)"/>
  <path id="Path_288" data-name="Path 288" d="M459.367,80.872V93.1H455.5V74.9h3.981L467.9,86.673V74.9h3.867V93.1h-3.754Z" transform="translate(-289.031 -46.179)"/>
  <path id="Path_289" data-name="Path 289" d="M493.6,87.267a8.191,8.191,0,0,0,5.8,2.446c2.1,0,3.185-1.024,3.185-2.047,0-1.365-1.592-1.82-3.7-2.332-2.957-.682-6.768-1.479-6.768-5.574,0-3.014,2.616-5.46,6.882-5.46a10.006,10.006,0,0,1,7.109,2.559L503.955,79.7a7.736,7.736,0,0,0-5.232-1.991c-1.763,0-2.673.739-2.673,1.877,0,1.251,1.536,1.592,3.64,2.1,3.014.682,6.825,1.592,6.825,5.631,0,3.3-2.389,5.858-7.28,5.858a10.688,10.688,0,0,1-7.735-2.9Z" transform="translate(-304.556 -45.92)"/>
  <path id="Path_290" data-name="Path 290" d="M528.589,78.312H523.3V74.9h14.5v3.412h-5.289V93.1h-3.924Z" transform="translate(-318.27 -46.179)"/>
  <path id="Path_291" data-name="Path 291" d="M556.3,74.9h3.867V93.1H556.3Z" transform="translate(-332.502 -46.179)"/>
  <path id="Path_292" data-name="Path 292" d="M575.889,78.312H570.6V74.9h14.5v3.412h-5.289V93.1h-3.924Z" transform="translate(-338.669 -46.179)"/>
  <path id="Path_293" data-name="Path 293" d="M603.6,74.9h3.924V85.706c0,2.559,1.365,4.266,4.209,4.266,2.787,0,4.152-1.763,4.152-4.266V74.9h3.924V85.763c0,4.55-2.616,7.621-8.076,7.621-5.574,0-8.133-3.128-8.133-7.564Z" transform="translate(-352.901 -46.179)"/>
  <path id="Path_294" data-name="Path 294" d="M644.989,78.312H639.7V74.9h14.5v3.412h-5.289V93.1h-3.924Z" transform="translate(-368.469 -46.179)"/>
  <path id="Path_295" data-name="Path 295" d="M672.7,74.9h12.854v3.3h-8.986v3.924h8.815v3.3h-8.815V89.63h8.986v3.356H672.7Z" transform="translate(-382.701 -46.179)"/>
</svg>
