<svg width="71" height="58" viewBox="0 0 71 58" fill="none" xmlns="http://www.w3.org/2000/svg">
<path d="M14.6698 22.9489C17.2166 22.9489 19.2812 20.891 19.2812 18.3524C19.2812 15.8138 17.2166 13.7559 14.6698 13.7559C12.123 13.7559 10.0584 15.8138 10.0584 18.3524C10.0584 20.891 12.123 22.9489 14.6698 22.9489Z" fill="black"/>
<path fill-rule="evenodd" clip-rule="evenodd" d="M47.3058 2.48876L40.8343 0L39.0551 4.59648H0V53.7312H20.0362L19.3472 55.5112L25.8188 58L47.3058 2.48876ZM21.7234 49.3725L23.3952 45.0534H9.02408V43.1118C9.85741 39.7935 12.7491 29.679 15.1064 29.679C19.36 29.679 20.6321 39.3474 24.8858 39.3474C25.1235 39.3474 25.3643 39.3446 25.6074 39.3384L37.3679 8.9552H4.3729V49.3725H21.7234Z" fill="black"/>
<path d="M47.4283 18.3524L37.093 45.0534H61.6579C60.9766 43.635 60.1115 41.2807 59.1048 38.5411C56.0998 30.3633 51.8333 18.7522 47.4283 18.3524Z" fill="black"/>
<path d="M66.6271 49.3725H35.4212L33.734 53.7312H71V4.59648H52.7529L51.0657 8.9552H66.6271V49.3725Z" fill="black"/>
</svg>
