<?xml version="1.0" encoding="utf-8"?>
<!-- Generator: Adobe Illustrator 23.0.3, SVG Export Plug-In . SVG Version: 6.00 Build 0)  -->
<svg version="1.1" id="Layer_1" xmlns="http://www.w3.org/2000/svg" xmlns:xlink="http://www.w3.org/1999/xlink" x="0px" y="0px"
	 viewBox="0 0 782.7 103.9" style="enable-background:new 0 0 782.7 103.9;" xml:space="preserve">
<style type="text/css">
	.st0{fill:#ABAAAA;}
	.st1{fill:none;stroke:#EF7A17;stroke-width:14;stroke-linecap:round;stroke-miterlimit:10;}
</style>
<g>
	<path d="M142.3,89.4c-4.7,0-8.6-1.9-11.5-5.4c-0.5,2.4-0.6,3.1-1.3,4.4H120c0.8-2.2,1.2-4.2,1.2-10.6V33.1c0-5.4-0.4-8.8-1.2-11.4
		l10.7-2.3c0.6,3.4,0.7,5.7,0.7,9.5v11c0,3.1-0.3,4.5-0.3,4.5l0.4,0.1c3.3-3.2,6.7-4.6,11.2-4.6c11.3,0,18.4,9.3,18.4,24.1
		C161.2,79.1,153.4,89.4,142.3,89.4z M140.5,48.6c-4.3,0-7.1,2.4-9,4.8v23.1c2.1,2.2,5.1,4.1,8.8,4.1c6.5,0,9.3-4.7,9.3-16.6
		C149.6,55.5,147.9,48.6,140.5,48.6z"/>
	<path d="M191.9,89.6c-12.8,0-20.9-9.6-20.9-24.8c0-15.2,8.1-24.9,20.7-24.9c13.5,0,21.2,10,21.2,25
		C212.9,80.1,204.7,89.6,191.9,89.6z M191.8,47.6c-6.6,0-9.4,5-9.4,16.5c0,13.8,3.5,17.8,9.6,17.8c6.1,0,9.5-5,9.5-16.9
		C201.6,51.6,197.8,47.6,191.8,47.6z"/>
	<path d="M248.8,88.3c-1.7-2.7-9.4-16-10.3-17.7c-1.8,3.6-8.5,15.1-10.3,17.7h-13l17.6-25.6l-13.7-20.3l11.1-2.2
		c2.2,3.6,6.4,11,8.6,15.4c1.3-3.1,6.1-12.5,7.5-14.5h12l-13.9,21.5l17.3,25.8H248.8z"/>
	<path d="M276.8,67.5v0.7c0,6.6,2.4,13.5,11.7,13.5c4.4,0,8.2-1.6,11.8-4.7l4,6.3c-5,4.2-10.7,6.3-17,6.3
		c-13.4,0-21.8-9.6-21.8-24.8c0-8.3,1.8-13.9,5.9-18.5c3.8-4.4,8.5-6.4,14.5-6.4c4.7,0,9,1.2,13,4.9c4.1,3.7,6.2,9.5,6.2,20.6v2.2
		H276.8z M285.9,47.6c-5.8,0-9,4.6-9,12.3h17.5C294.4,52.2,291.1,47.6,285.9,47.6z"/>
	<path d="M330.8,89.7c-5.8,0-12.1-1.9-18.2-5.2l3.7-7.4c4.2,2.4,10,5,15.4,5c4.5,0,7.7-2.7,7.7-6.6c0-3.7-2.3-5.5-7.7-6.6l-5.7-1.2
		c-7.1-1.5-11.3-6.4-11.3-13c0-8.9,7.1-15.1,17.6-15.1c6.5,0,11.6,2,15.6,4.1l-3.4,7.1c-4.4-2.3-7.9-3.5-11.6-3.5
		c-4.4,0-7.2,2.4-7.2,6.1c0,2.9,1.6,4.4,6.4,5.6l5.9,1.5c9.5,2.4,12.1,7.7,12.1,13.2C349.9,83.1,342.2,89.7,330.8,89.7z"/>
	<path class="st0" d="M392.6,90.3c-2.9-1.1-5.3-3.4-6.5-6.4c-3.8,4.3-8,5.8-13,5.8c-10.9,0-15.7-6-15.7-14.2
		c0-11,8.2-16.5,23.4-16.5h3.2v-2.5c0-5.4-0.9-8.3-6.6-8.3c-6.8,0-14.1,5.4-14.1,5.4l-4.6-7.4c7.1-4.5,13-6.5,20.1-6.5
		c7.4,0,12.4,2.7,14.4,7.9c0.8,2.1,0.8,4.6,0.7,11.6l-0.2,13.6c-0.1,6.4,0.5,8.4,4.1,11L392.6,90.3z M382,66c-10.3,0-13.4,3-13.4,9
		c0,4.5,2.4,7.3,6.6,7.3c3.3,0,6.5-2,8.5-5l0.2-11.2C383.8,66.1,382.7,66,382,66z"/>
	<path class="st0" d="M435.8,88.3V56.9c0-6.5-1.5-8.2-5.4-8.2c-3,0-7.3,2.2-10.4,5.3v34.4h-10.1V53.5c0-5-0.5-7.9-1.8-11.2l9.4-2.6
		c1.1,2.2,1.7,4.2,1.7,6.7c5.1-4.3,9.5-6.6,14.5-6.6c7.3,0,12.4,4.4,12.4,13.1v35.4H435.8z"/>
	<path class="st0" d="M490.9,88.3c-0.5-1-0.6-1.7-0.8-3.7c-3.2,3.2-6.9,4.7-11.6,4.7c-12.1,0-19.4-9.5-19.4-24.2
		c0-14.9,8.2-25,19.7-25c4,0,7.3,1.3,10.2,4.3c0,0-0.3-3.7-0.3-7.8V19.3l10.2,1.6v50.9c0,9.4,0.6,14.1,1.5,16.5H490.9z M488.7,52.2
		c-2.3-2.5-5.1-3.8-8.6-3.8c-6.6,0-9.5,5.2-9.5,16.7c0,10.5,2.1,15.7,9.8,15.7c3.8,0,6.9-2.2,8.3-4.5V52.2z"/>
	<path d="M546.3,90.3c-2.9-1.1-5.3-3.4-6.5-6.4c-3.8,4.3-8,5.8-13,5.8c-10.9,0-15.7-6-15.7-14.2c0-11,8.2-16.5,23.4-16.5h3.2v-2.5
		c0-5.4-0.9-8.3-6.6-8.3c-6.8,0-14.1,5.4-14.1,5.4l-4.6-7.4c7.1-4.5,13-6.5,20.1-6.5c7.4,0,12.4,2.7,14.4,7.9
		c0.8,2.1,0.8,4.6,0.7,11.6l-0.2,13.6c-0.1,6.4,0.5,8.4,4.1,11L546.3,90.3z M535.6,66c-10.3,0-13.4,3-13.4,9c0,4.5,2.4,7.3,6.6,7.3
		c3.3,0,6.5-2,8.5-5l0.2-11.2C537.5,66.1,536.3,66,535.6,66z"/>
	<path d="M585.6,50c-1-0.4-1.8-0.7-2.9-0.7c-4.3,0-8,3.2-8.9,7v32h-10.3V54.9c0-6-0.7-9.8-1.7-12.7l9.5-2.4c1.1,2.2,1.8,4.9,1.8,7.5
		c3.7-5.1,7.5-7.6,12.1-7.6c1.5,0,2.4,0.2,3.7,0.7L585.6,50z"/>
	<path d="M618.3,50c-1-0.4-1.8-0.7-2.9-0.7c-4.3,0-8,3.2-8.9,7v32h-10.3V54.9c0-6-0.7-9.8-1.7-12.7l9.5-2.4c1.1,2.2,1.8,4.9,1.8,7.5
		c3.7-5.1,7.5-7.6,12.1-7.6c1.5,0,2.4,0.2,3.7,0.7L618.3,50z"/>
	<path d="M646.1,89.6c-12.8,0-20.9-9.6-20.9-24.8c0-15.2,8.1-24.9,20.7-24.9c13.5,0,21.2,10,21.2,25C667.1,80.1,659,89.6,646.1,89.6
		z M646,47.6c-6.6,0-9.4,5-9.4,16.5c0,13.8,3.5,17.8,9.6,17.8c6.1,0,9.5-5,9.5-16.9C655.8,51.6,652,47.6,646,47.6z"/>
	<path d="M722.8,88.5h-9.6l-5.8-21.8c-1.5-5.6-3.1-12.9-3.1-12.9h-0.2c0,0-0.7,4.7-3.1,13.4l-5.7,21.3h-9.6l-12.9-46.9l10.2-1.4
		l5.1,22.9c1.3,5.9,2.4,12.5,2.4,12.5h0.3c0,0,0.9-6.2,2.7-12.7l6.1-21.9h10.1l5.3,21.3c2,7.7,3,13.5,3,13.5h0.3
		c0,0,1.1-7.2,2.3-12.7l4.9-22.1h10.7L722.8,88.5z"/>
	<path d="M759,89.7c-5.8,0-12.1-1.9-18.2-5.2l3.7-7.4c4.2,2.4,10,5,15.4,5c4.5,0,7.7-2.7,7.7-6.6c0-3.7-2.3-5.5-7.7-6.6l-5.7-1.2
		c-7.1-1.5-11.3-6.4-11.3-13c0-8.9,7.1-15.1,17.6-15.1c6.5,0,11.6,2,15.6,4.1l-3.4,7.1c-4.4-2.3-7.9-3.5-11.6-3.5
		c-4.4,0-7.2,2.4-7.2,6.1c0,2.9,1.6,4.4,6.4,5.6l5.9,1.5c9.5,2.4,12.1,7.7,12.1,13.2C778.2,83.1,770.5,89.7,759,89.7z"/>
</g>
<g>
	<path class="st1" d="M69,43.2v26.7 M42.3,69.9H69 M12.7,48.9v23c0,11.2,9.1,20.2,20.2,20.2h38.1c11.2,0,20.2-9.1,20.2-20.2V33.8
		c0-11.2-9.1-20.2-20.2-20.2H34.8c-1.9,0-3.8,0.3-5.6,0.8c-5.5,1.6-7.2,8.6-3.1,12.7L69,69.9"/>
</g>
</svg>
