<svg xmlns="http://www.w3.org/2000/svg" id="Layer_1" viewBox="0 0 395.6 91.3"><style>.st0{fill:#fff}</style><path d="M116.6 77a36.5 36.5 0 1 0 36.5 36.5v-.1A36.7 36.7 0 0 0 116.6 77zm22.9 61.8a4 4 0 0 1-3.4.1 2.8 2.8 0 0 1-1.6-2.3c-.2-1.5.6-3.2 1.3-4.3 1.5-2.5 3.5-4.6 5.8-6.4 3.6-2.7 6.2-3.5 5.3-4.1-.7-.5-4.2 1.5-4.8 1.8-3.9 2-9.3 7.8-9.9 12.1-.5 3.4 3.4 5.8 6.1 4.9-8.6 7.4-18.3 7.6-21.5 7.7-7.9.1-15.6-2.7-21.6-7.7 2.7.9 6.5-1.5 6.1-4.9-.6-4.3-6-10.1-9.9-12.1-.7-.3-4.1-2.3-4.8-1.8-1 .6 1.6 1.4 5.3 4.1 2.3 1.8 4.2 4 5.7 6.4a7.6 7.6 0 0 1 1.4 4.3 3 3 0 0 1-1.6 2.3c-1.1.4-2.3.4-3.4-.1a9 9 0 0 1-4.3-3.6 34.5 34.5 0 0 1-5.7-10.5c1 2.2 7.2 11.2 9.9 11.4 2.8.2-2.7-7.3-6.5-10.5-1.1-.8-2.2-1.6-2.4-3.1-.2-.7.2-1.5.9-1.7l.5-.1c1.5-.1 5.5 2 5.6 1.9-6.9-12.4 3.6-18.7-.7-21.4-1.5-1-4.8 0-6.5.3 16.3-9.6 19.1 0 24 4.4.7.7 4.2 0 4.9-.8.9-1.1 2.6-4.8.6-7.3-2.9-3.6-14.7-14.2-25.4-4.8a34 34 0 0 1 28-14.4 34.2 34.2 0 0 1 28 14.4c-10.8-9.4-22.6 1.3-25.4 4.8-1.9 2.5-.2 6.3.6 7.3.7.8 4.2 1.5 4.9.8 4.9-4.4 7.7-14 24-4.4-1.8-.3-5-1.3-6.5-.3-4.4 2.7 6.1 9-.7 21.4.1.1 4-2 5.6-1.9.8 0 1.4.6 1.4 1.3l-.1.4a5.6 5.6 0 0 1-2.2 3.1c-3.8 3.1-9.4 10.6-6.6 10.5 2.8-.1 8.9-9.2 9.9-11.4a35.7 35.7 0 0 1-5.7 10.5 12.4 12.4 0 0 1-4.6 3.7zm-18.9-4.1l-3.9.4c-1.2 0-2.6-.3-3.9-.4l-.3.1c-.8 1.6 3.6 2.6 4.3 2.6.6.1 5.1-.9 4.3-2.6-.1 0-.3-.2-.5-.1zm-4-14.5c-1.3.1-2 1.1-3.1 2.3-2 2.2-6.1 7.6-3.1 10.2a5.6 5.6 0 0 0 5.5 1.2c.6-.4.3-1.6-.1-2.2-1.1-1.5-2.8-.9-3.4-1.6-.4-.5-.3-1.2.1-1.6.4-.5 1.1-.4 1.6-.2.9.2 1.7.6 2.3 1.3v.1-.1c.6-.6 1.4-1.1 2.3-1.3.6-.2 1.3-.3 1.6.2.5.4.5 1.1.1 1.6-.5.7-2.2.2-3.4 1.6-.3.6-.7 1.8-.1 2.2 1.9.7 4 .2 5.5-1.2 3-2.6-1.1-8-3.1-10.2-.7-1.2-1.5-2.3-2.7-2.3zm25.6-9c-.2-1.5-1.5-2-2.7-2.3-3.4-1.1-4.8.3-5.8.3 1.1-1.3.8-3.2-.6-3.5-2.6-.4-1.9 2.4-1.3 3.8.4.9.9 2.2 2.2 2.1 1.6-.1 1.4-1.4 3.6-1.6 0 0 2.8.2 2.8 1.1-.1 1.4-1.6 1.9-2.6 2.2-1.4.5-3.1-.2-4.3 1.1-.4.4-.6.9-.5 1.5.1.5.2.3 1.8.4a7 7 0 0 0-1.4 4.2c-.1 4-1 7.1-.6 8.4 1.9-2.3 1.9-5.7 2.2-8.5.2-1.5.6-2.9 1.4-4.1.8-1.3 2.3-1.3 3.4-2s2.6-1.9 2.4-3.1zm-41.9-5.4c-1.4.2-1.6 2.3-.6 3.5-1-.1-2.4-1.4-5.8-.3-1.2.3-2.5.9-2.7 2.3-.1 1.1 1.4 2.3 2.3 3 1 .7 2.6.8 3.4 2a8.4 8.4 0 0 1 1.4 4.1c.3 2.8.3 6.3 2.2 8.5.3-1.4-.6-4.4-.6-8.4a7 7 0 0 0-1.4-4.2c1.6-.1 1.6.1 1.8-.4.1-.5-.1-1.1-.5-1.5-1.1-1.3-2.8-.6-4.3-1.1-1-.3-2.4-.9-2.5-2.2-.1-.9 2.8-1.1 2.8-1.1 2.3.2 2 1.5 3.6 1.6 1.3.1 1.9-1.3 2.3-2.1.6-1.3 1.3-4.1-1.4-3.7zm10.2 16.8c1.1-1.6 2.2-5.2 1.5-6.7a7.3 7.3 0 0 1-3.1-2.4c-.7-1.1-1.2-2.3-2.5-2.7a3 3 0 0 0-2.6.3c-1.2.7-1.5 2.3-1.6 3.6a23 23 0 0 0 1.5 9c1.1 2.7 2.5 5.3 4.2 7.7-.5-4.6 2-7.6 2.6-8.8zm-3.5-5.8c-.5-.9-1.9-.7-2.5-1.1-.8-.6-1-1.7-.4-2.5l.4-.4c1.3-1.1 4.4 2.5 3.7 5.3-.3 0-.4-.1-1.2-1.3zm22.3-5.7c-.8-.4-1.7-.5-2.6-.3-1.3.3-1.8 1.6-2.6 2.7a6.7 6.7 0 0 1-3.1 2.4c-.7 1.5.5 5.1 1.5 6.7.6 1.3 3.1 4.2 2.6 8.7 1.7-2.4 3.1-5 4.2-7.7 1.1-2.9 1.7-5.9 1.6-9-.2-1.2-.4-2.9-1.6-3.5zm-.8 4.6c-.6.3-1.9.2-2.5 1.1-.7 1.2-.9 1.4-1.2 1.3-.7-2.8 2.5-6.4 3.7-5.3.8.6 1 1.8.4 2.6l-.4.3z" class="st0" transform="translate(-80 -77)"/><path d="M7.8.1H3.2C1.2.1.1 1.1.1 2.9V11c0 1.8 1.1 2.8 3.1 2.8h4.6c2 0 3.1-1 3.1-2.8V8.8h-3v2c0 .2-.1.4-.5.4H3.5c-.4 0-.5-.2-.5-.4V3c0-.2.1-.4.5-.4h3.9c.5 0 .5.2.5.4v2h3V2.9C10.9 1 9.7.1 7.8.1zM21.8.1H17c-2 0-3.1 1-3.1 2.8V11c0 1.8 1.1 2.8 3.1 2.8h4.8c2 0 3.1-1 3.1-2.8V2.9C24.9 1 23.8.1 21.8.1zm.1 2.9v7.8c0 .2-.1.4-.5.4h-4.1c-.4 0-.5-.2-.5-.4V3c0-.2.1-.4.5-.4h4.1c.5 0 .5.3.5.4zM30.9.1h-3v13.8h9.4v-2.6h-6.4V.1zM47.5.1h-4.8c-2 0-3.1 1-3.1 2.8V11c0 1.8 1.1 2.8 3.1 2.8h4.8c2 0 3.1-1 3.1-2.8V2.9C50.6 1 49.5.1 47.5.1zm.1 2.9v7.8c0 .2-.1.4-.5.4H43c-.4 0-.5-.2-.5-.4V3c0-.2.1-.4.5-.4h4.1c.5 0 .5.3.5.4zM64.3 5.9v-3c0-1.8-1.1-2.8-3.1-2.8h-7.6v13.8h3V8.7H59l2.6 5.1H65l-2.7-5.2a2.4 2.4 0 0 0 2-2.7zm-7.7-3.3h4.2c.4 0 .5.2.5.4v2.8c0 .2-.1.4-.5.4h-4.2V2.6zM71.9.1l-5.1 13.8H70l1.1-3.2h4.8l1.1 3.2h3.3L75.2.1h-3.3zM75 8h-3l1.5-4.5L75 8zM90.4.1h-7.8v13.8h7.8c2 0 3.1-1 3.1-2.8V2.9c.1-1.9-1-2.8-3.1-2.8zm-4.7 2.5H90c.4 0 .5.2.5.4v7.8c0 .2-.1.4-.5.4h-4.4V2.6zM104.4.1h-4.8c-2 0-3.1 1-3.1 2.8V11c0 1.8 1.1 2.8 3.1 2.8h4.8c2 0 3.1-1 3.1-2.8V2.9c.1-1.9-1-2.8-3.1-2.8zm.2 2.9v7.8c0 .2-.1.4-.5.4H100c-.4 0-.5-.2-.5-.4V3c0-.2.1-.4.5-.4h4.1c.4 0 .5.3.5.4zM122.8 5.9l-3.8-.7c-.7-.1-.7-.3-.7-.6V3c0-.2.1-.4.5-.4h3.5c.4 0 .5.2.5.4v1.6h3V2.9c0-1.8-1.1-2.8-3.1-2.8h-4.2c-2 0-3.1 1-3.1 2.8v1.9c0 2 1.5 2.6 3.2 2.9l3.8.8c.7.1.7.2.7.6v1.7c0 .2-.1.4-.5.4h-3.8c-.4 0-.5-.2-.5-.4V9.1h-3v1.8c0 1.8 1.1 2.8 3.1 2.8h4.5c2 0 3.1-1 3.1-2.8V8.8c0-2-1.5-2.5-3.2-2.9zM139.1.1h-11v2.6h4v11.2h3.1V2.6h4V.1zM143.8.1l-5.1 13.8h3.2l1.1-3.2h4.8l1.1 3.2h3.3L147.1.1h-3.3zm3.1 7.9h-3l1.5-4.5 1.5 4.5zM151.7 2.6h4v11.2h3V2.6h4V.1h-11.1v2.5zM164.9 13.8h10v-2.6H168V8.1h5.7V5.5H168V2.6h6.9V.1h-10v13.7zM190.8 10.8c0 .2-.1.4-.5.4h-4c-.5 0-.5-.2-.5-.4V0h-3v10.9c0 1.8 1.1 2.8 3.1 2.8h4.8c2 0 3.1-1 3.1-2.8V0h-3v10.8zM205.5 8.9L199.8.1h-3v13.8h2.9V4.7l5.9 9.1h2.8V.1h-2.9v8.8zM211.3.1h3v13.8h-3zM223.2 10.1L220 .1h-3.3l4.8 13.8h3.2L229.5.1h-3.2l-3.1 10zM231.9 13.8h10v-2.6h-7V8.1h5.7V5.5h-5.7V2.6h7V.1h-10v13.7zM255.4 5.9v-3c0-1.8-1.1-2.8-3.1-2.8h-7.6v13.8h3V8.7h2.4l2.6 5.1h3.3l-2.7-5.2c1.3-.2 2.3-1.4 2.1-2.7zm-7.7-3.3h4.2c.4 0 .5.2.5.4v2.8c0 .2-.1.4-.5.4h-4.2V2.6zM265.8 5.9l-3.8-.7c-.7-.1-.7-.3-.7-.6V3c0-.2.1-.4.5-.4h3.5c.4 0 .5.2.5.4v1.6h3V2.9c0-1.8-1.1-2.8-3.1-2.8h-4.2c-2 0-3.1 1-3.1 2.8v1.9c0 2 1.5 2.6 3.2 2.9l3.8.8c.7.1.7.2.7.6v1.7c0 .2-.1.4-.5.4h-3.8c-.4 0-.5-.2-.5-.4V9.1h-3v1.8c0 1.8 1.1 2.8 3.1 2.8h4.5c2 0 3.1-1 3.1-2.8V8.8c0-2-1.6-2.5-3.2-2.9zM271.8.1h3v13.8h-3zM276.9 2.6h4v11.2h3V2.6h4V.1h-11v2.5zM298.8.1l-3.2 6-3.2-6H289l5 8.9v4.8h3V9l5-8.9h-3.2z" class="st0" transform="translate(93.6 77.5)"/><g><path d="M9.6 0c5-.2 9.3 3.7 9.5 8.7v.7c0 5.2-4.3 9.5-9.5 9.5S.1 14.6.1 9.4A9 9 0 0 1 9 0h.6zm0 3.5c-3.4 0-5.5 2.6-5.5 6s2.2 6 5.5 6 5.5-2.6 5.5-6c0-3.5-2.2-6-5.5-6zM24.5 13a7.8 7.8 0 0 0 5.8 2.4c2.1 0 3.2-1 3.2-2 0-1.4-1.6-1.8-3.7-2.3-3-.7-6.8-1.5-6.8-5.6 0-3 2.6-5.5 6.9-5.5A10 10 0 0 1 37 2.6l-2.2 2.8a7.7 7.7 0 0 0-5.2-2c-1.8 0-2.7.7-2.7 1.9 0 1.3 1.5 1.6 3.6 2.1 3 .7 6.8 1.6 6.8 5.6 0 3.3-2.4 5.9-7.3 5.9-2.9.1-5.6-.9-7.7-2.9l2.2-3zM54.2 10.9h-8.6v7.6h-3.9V.4h3.9v7.2h8.6V.4h3.9v18.2h-3.9v-7.7zM63.5.4h12.9v3.3h-9v3.9h8.8v3.3h-8.8v4.3h9v3.4H63.5V.4zM87.9 12H85v6.5h-3.9V.4h8.5c3.8 0 6.1 2.5 6.1 5.9a5.2 5.2 0 0 1-4 5.4l4.1 6.9h-4.4L87.9 12zm1.2-8.4h-4v5h4c1.4.1 2.6-.9 2.7-2.3s-.8-2.5-2.2-2.7h-.5zM109.3.4h3.9v14.8h7.7v3.4h-11.5V.4zM125.4.4h3.9v18.2h-3.9V.4zM134.6.4h12.9v3.3h-9v3.9h8.8v3.3h-8.8v7.6h-3.9V.4zM152 .4h12.9v3.3h-9v3.9h8.8v3.3h-8.8v4.3h9v3.4H152V.4zM169.7.4h3.9v14.8h7.7v3.4h-11.5V.4zM193.6 0c5-.2 9.3 3.7 9.5 8.7v.7c0 5.2-4.3 9.5-9.5 9.5s-9.5-4.3-9.5-9.5a9.1 9.1 0 0 1 9.5-9.4zm0 3.5c-3.4 0-5.5 2.6-5.5 6s2.2 6 5.5 6 5.5-2.6 5.5-6c0-3.5-2.1-6-5.5-6zM211.5 6.3v12.2h-3.9V.4h4l8.4 11.8V.4h3.9v18.2h-3.8l-8.6-12.3zM238.1 0c3-.1 5.9 1.4 7.5 4l-3.2 1.8a5.4 5.4 0 0 0-4.3-2.3 5.7 5.7 0 0 0-5.7 5.6v.3a5.7 5.7 0 0 0 5.4 6h.3c1.4 0 2.8-.5 3.9-1.4v-2.2h-4.8V8.5h8.6v6.9c-2 2.2-4.8 3.4-7.7 3.4-5.3 0-9.7-3.7-9.7-9.4s4.4-9.4 9.7-9.4zM1 28.7h3.9v14.8h7.7v3.4H1V28.7zM17 28.7h12.9V32h-9v4h8.8v3.3h-8.8v4.2h9v3.4H17V28.7zM46.3 43.7h-8.1L37 46.9h-4.3l7.1-18.2h4.8l7 18.2h-4.2l-1.1-3.2zm-7.1-3.3h6l-3-8.4-3 8.4zM61.8 40.4H59v6.5h-3.9V28.7h8.5c3.8 0 6.1 2.5 6.1 5.9a5.2 5.2 0 0 1-4 5.4l4.1 6.9h-4.4l-3.6-6.5zm1.3-8.4h-4v5h4c1.4.1 2.6-.9 2.7-2.3.1-1.4-.9-2.6-2.3-2.7h-.4zM78.3 34.7v12.2h-3.9V28.7h4l8.4 11.8V28.7h3.9v18.2H87l-8.7-12.2zM96.1 28.7h3.9v18.2h-3.9V28.7zM109.3 34.7v12.2h-3.9V28.7h4l8.4 11.8V28.7h3.9v18.2h-3.8l-8.6-12.2zM135.9 28.4c3-.1 5.9 1.4 7.5 4l-3.2 1.8a5.4 5.4 0 0 0-4.3-2.3 6 6 0 0 0-5.7 6.3 6 6 0 0 0 5.7 5.7c1.4 0 2.8-.5 3.9-1.4v-2.3H135v-3.3h8.6v6.9c-2 2.2-4.8 3.4-7.7 3.4-5.3 0-9.7-3.7-9.7-9.4s4.4-9.4 9.7-9.4zM157.3 28.7h3.9v18.2h-3.9V28.7zM170.4 34.7v12.2h-3.9V28.7h4l8.4 11.8V28.7h3.9v18.2H179l-8.6-12.2zM189.1 41.4a7.8 7.8 0 0 0 5.8 2.4c2.1 0 3.2-1 3.2-2 0-1.4-1.6-1.8-3.7-2.3-3-.7-6.8-1.5-6.8-5.6 0-3 2.6-5.5 6.9-5.5 2.6-.1 5.2.8 7.1 2.6l-2.2 2.8a7.7 7.7 0 0 0-5.2-2c-1.8 0-2.7.7-2.7 1.9 0 1.3 1.5 1.6 3.6 2.1 3 .7 6.8 1.6 6.8 5.6 0 3.3-2.4 5.9-7.3 5.9-2.9.1-5.6-.9-7.7-2.9l2.2-3zM210.4 32.1h-5.3v-3.4h14.5v3.4h-5.3v14.8h-3.9V32.1zM223.9 28.7h3.9v18.2h-3.9V28.7zM237.3 32.1H232v-3.4h14.5v3.4h-5.3v14.8h-3.9V32.1zM250.8 28.7h3.9v10.8c0 2.6 1.4 4.3 4.2 4.3 2.8 0 4.2-1.8 4.2-4.3V28.7h3.9v10.9c0 4.6-2.6 7.6-8.1 7.6-5.6 0-8.1-3.1-8.1-7.6V28.7zM276.6 32.1h-5.3v-3.4h14.5v3.4h-5.3v14.8h-3.9V32.1zM290.1 28.7H303V32h-9v4h8.8v3.3H294v4.2h9v3.4h-12.9V28.7z" class="st0" transform="translate(92.6 13.9)"/></g></svg>