<?xml version="1.0" encoding="utf-8"?>
<!-- Generator: Adobe Illustrator 23.0.3, SVG Export Plug-In . SVG Version: 6.00 Build 0)  -->
<svg version="1.1" id="Layer_1" xmlns="http://www.w3.org/2000/svg" xmlns:xlink="http://www.w3.org/1999/xlink" x="0px" y="0px"
	 viewBox="0 0 954 123" style="enable-background:new 0 0 954 123;" xml:space="preserve">
<style type="text/css">
	.st0{enable-background:new    ;}
	.st1{fill:#FFFFFF;}
	.st2{fill:#8CBFE6;}
	.st3{fill:#EAE45D;}
	.st4{fill:#59D7C8;}
	.st5{fill:#FB9177;}
</style>
<g id="Group_2" transform="translate(-218.897 62.416)">
	<g class="st0">
		<path class="st1" d="M579.9,43.4l-0.1-45.7l-22.6,38H553L530.4-1.9v45.4h-8.6v-62.7h7.3l26.1,44l25.8-44h7.3l0.1,62.7H579.9z"/>
		<path class="st1" d="M611.1,12.1c0-18.4,14.1-32,33.4-32c19.1,0,33.2,13.6,33.2,32c0,18.4-14.1,32-33.2,32
			C625.3,44.2,611.1,30.5,611.1,12.1z M668.8,12.1c0-13.9-10.4-24.1-24.3-24.1c-14.1,0-24.4,10.2-24.4,24.1
			c0,13.9,10.4,24.1,24.4,24.1C658.4,36.2,668.8,26,668.8,12.1z"/>
		<path class="st1" d="M700.4-19.2h9v54.9h33.9v7.8h-42.9V-19.2z"/>
		<path class="st1" d="M808,35.7v7.8h-45.5v-62.7h44.2v7.8h-35.3V7.8h31.4v7.6h-31.4v20.2H808z"/>
		<path class="st1" d="M826.1,12.1c0-18.5,14.1-32,33.2-32c9.7,0,18.1,3.3,23.8,9.8l-5.8,5.6c-4.8-5.1-10.7-7.4-17.6-7.4
			C845.5-12,835-1.8,835,12.1c0,13.9,10.5,24.1,24.6,24.1c6.9,0,12.8-2.4,17.6-7.5l5.8,5.6c-5.7,6.4-14.1,9.8-23.9,9.8
			C840.2,44.2,826.1,30.6,826.1,12.1z"/>
		<path class="st1" d="M904.1,16.4v-35.6h9v35.3c0,13.9,6.4,20.1,17.6,20.1s17.7-6.3,17.7-20.1v-35.3h8.7v35.6
			c0,18.2-9.9,27.8-26.5,27.8C914.1,44.2,904.1,34.6,904.1,16.4z"/>
		<path class="st1" d="M984.4-19.2h9v54.9h33.9v7.8h-42.9V-19.2z"/>
		<path class="st1" d="M1086.7,27.8h-33.3l-6.9,15.7h-9.2l28.4-62.7h8.9l28.5,62.7h-9.4L1086.7,27.8z M1083.6,20.6L1070-10.1
			l-13.5,30.7H1083.6z"/>
		<path class="st1" d="M1163.2,43.4l-13.5-19.2c-1.3,0.1-2.6,0.2-3.9,0.2h-15.5v19.1h-9v-62.7h24.4c16.3,0,26.1,8.2,26.1,21.8
			c0,9.7-5,16.7-13.8,19.8l14.9,21H1163.2z M1162.9,2.6c0-9-6-14.1-17.5-14.1h-15.2v28.2h15.2C1156.9,16.8,1162.9,11.6,1162.9,2.6z"
			/>
	</g>
	<path id="Path_13" class="st1" d="M266,29.7c-3.5,1.9-7.5,2.8-11.5,2.7c-10.9,0.6-20.1-7.8-20.7-18.6c0-0.6,0-1.2,0-1.8
		c0-12.1,8.5-20.4,20.9-20.4c6.3-0.1,12.3,2.5,16.5,7.2l9.5-8.7c-6.8-7.5-16.6-11.5-26.7-11c-20.3,0-35.1,13.8-35.1,33
		s14.7,33,34.8,33c9.2,0.1,18.2-2.8,25.8-8.1V11h-24.2v9.5H266V29.7z M315.4,43.9h14.8V-7.8h20.4v-12H295v12h20.4V43.9z"/>
	<path class="st2" d="M393.3,6.9c3.5-3,7.7-5.2,12.2-6.4c0.9-0.2,1.8-0.4,2.6-0.6c-1-4.9-0.2-9.9,2.3-14.3c2.7-4.7,7.1-8.1,12.4-9.5
		c0.6-0.2,1.3-0.3,1.9-0.4c0-0.1-0.1-0.3-0.1-0.4c-1.6-5.8-1.4-11.7,0.2-17.2c-13.9-7.9-31.5-3.1-39.5,10.7
		C377.8-18.1,381.4-1.7,393.3,6.9z"/>
	<path class="st3" d="M491.8,16.7c0-0.9,0-1.7-0.1-2.6c0-0.2-0.1-0.4-0.1-0.6c-0.1-0.7-0.1-1.4-0.3-2.1c-0.2-0.9-0.4-1.8-0.6-2.8
		c-0.2-0.9-0.5-1.8-0.9-2.7c-0.3-0.7-0.6-1.4-0.9-2.1c-0.1-0.2-0.1-0.3-0.2-0.5c-0.4-0.8-0.8-1.6-1.3-2.3c0,0,0-0.1-0.1-0.1
		c-0.5-0.8-1-1.5-1.5-2.3c0,0,0-0.1-0.1-0.1c-0.5-0.7-1.1-1.4-1.7-2c-0.1-0.1-0.1-0.1-0.2-0.2c-0.5-0.6-1.1-1.1-1.7-1.7
		c-0.1-0.1-0.2-0.2-0.3-0.3c-0.6-0.5-1.2-1-1.8-1.4c-0.2-0.1-0.3-0.3-0.5-0.4C479-8,478.2-8.5,477.4-9c0,0-0.1,0-0.1-0.1
		c-1-0.6-2.1-1.1-3.2-1.6c-0.3-0.1-0.6-0.2-0.9-0.4c-0.8-0.3-1.6-0.6-2.5-0.8c-0.3-0.1-0.6-0.2-0.9-0.3c-1.1-0.3-2.2-0.5-3.3-0.6
		c0,0,0,0,0,0c-1.2-0.2-2.3-0.2-3.5-0.2c-0.2,0-0.4,0-0.6,0c-1,0-2,0.1-3,0.2c-0.2,0-0.4,0-0.6,0.1c-2.3,0.3-4.6,0.9-6.8,1.8
		c-0.2,0.1-0.3,0.1-0.5,0.2c-0.9,0.4-1.8,0.8-2.7,1.3c-0.2,0.1-0.4,0.2-0.6,0.3c-2,1.2-3.9,2.6-5.6,4.2c-0.2,0.2-0.4,0.4-0.6,0.6
		c-0.6,0.6-1.2,1.3-1.8,2c-0.2,0.3-0.4,0.5-0.6,0.8c-0.7,0.9-1.4,1.9-2,3c-7.4,12.8-3.9,28.9,7.6,37.6c1,0.7,2,1.4,3.1,2.1
		c0.8,0.5,1.7,0.9,2.6,1.3c13.4,6.1,29.6,1.1,37.1-12c0.1-0.1,0.1-0.2,0.2-0.3c0.4-0.8,0.8-1.5,1.2-2.3c0.1-0.3,0.2-0.5,0.3-0.8
		c0.3-0.6,0.5-1.3,0.8-1.9c0.1-0.2,0.1-0.4,0.2-0.6c0.2-0.7,0.4-1.5,0.6-2.2c0-0.1,0-0.2,0.1-0.4c0.2-0.8,0.3-1.6,0.4-2.4
		c0-0.1,0-0.1,0-0.2c0.1-0.9,0.2-1.7,0.2-2.6C491.8,16.8,491.8,16.8,491.8,16.7z"/>
	<path class="st1" d="M431,13.1c0.4-4.5,1.7-8.9,4.1-13c2.4-4.1,5.6-7.5,9.4-10.2c-0.2-0.6-0.4-1.2-0.7-1.8c0-0.1-0.1-0.1-0.1-0.2
		c-0.5-0.9-1-1.8-1.7-2.7c-0.1-0.1-0.1-0.1-0.2-0.2c-0.7-0.8-1.4-1.6-2.2-2.3c0,0-0.1-0.1-0.1-0.1c-0.8-0.7-1.7-1.4-2.7-1.9
		c-0.6-0.4-1.2-0.7-1.9-0.9c-0.2-0.1-0.4-0.2-0.6-0.2c-0.4-0.2-0.9-0.3-1.4-0.5c-0.2-0.1-0.5-0.1-0.7-0.2c-0.5-0.1-1-0.2-1.5-0.3
		c-0.2,0-0.4-0.1-0.5-0.1c-0.6-0.1-1.3-0.1-1.9-0.1c-0.2,0-0.5,0-0.7,0c-0.5,0-0.9,0-1.4,0.1c-0.2,0-0.4,0-0.7,0.1
		c-0.7,0.1-1.3,0.2-2,0.4c0,0,0,0,0,0c-1.1,0.3-2.2,0.7-3.2,1.2c-0.1,0-0.1,0.1-0.2,0.1c-1,0.5-1.9,1-2.7,1.7
		c-0.1,0.1-0.1,0.1-0.2,0.2c-0.8,0.7-1.6,1.4-2.3,2.2c0,0-0.1,0.1-0.1,0.1c-0.7,0.8-1.4,1.7-2,2.7c-0.1,0.1-0.1,0.2-0.1,0.3
		c-0.2,0.4-0.5,0.9-0.7,1.3c-0.1,0.2-0.1,0.3-0.2,0.5c-0.2,0.4-0.3,0.8-0.4,1.2c0,0.1-0.1,0.3-0.1,0.4c-0.1,0.4-0.3,0.9-0.4,1.3
		c0,0.1,0,0.2,0,0.2c-0.1,0.5-0.2,1-0.3,1.4c0,0.1,0,0.1,0,0.2c-0.1,0.5-0.1,1-0.1,1.5c0,0.1,0,0.1,0,0.2c0,0.5,0,1,0,1.5
		c0,0.1,0,0.3,0,0.4c0,0.4,0.1,0.9,0.2,1.3c0.1,0.4,0.2,0.8,0.3,1.2c0,0.1,0.1,0.3,0.1,0.4c0.3,1.1,0.7,2.2,1.2,3.2
		c0,0.1,0.1,0.1,0.1,0.2c0.5,1,1,1.9,1.7,2.7c0.1,0.1,0.1,0.1,0.2,0.2c0.7,0.8,1.4,1.6,2.2,2.3c0,0,0.1,0.1,0.1,0.1
		c0.8,0.7,1.7,1.4,2.7,1.9c0,0,0,0,0,0c0.5,0.3,1,0.6,1.6,0.8c0.1,0,0.2,0.1,0.2,0.1c0.5,0.2,0.9,0.4,1.4,0.5c0.1,0,0.2,0,0.3,0.1
		c0.5,0.1,0.9,0.3,1.4,0.4c0.1,0,0.1,0,0.2,0c0.5,0.1,1,0.2,1.5,0.3c0.1,0,0.1,0,0.2,0c0.5,0.1,1,0.1,1.5,0.1c0.1,0,0.2,0,0.3,0
		c0.5,0,0.9,0,1.4,0c0.2,0,0.4,0,0.6-0.1C430.2,13.2,430.6,13.2,431,13.1C431,13.2,431,13.1,431,13.1z"/>
	<path class="st4" d="M430.8,16.1c-0.9,0.1-1.9,0.2-2.8,0.2c-3.5,0-7-0.9-10.2-2.7c-4.2-2.4-7.4-6.2-9-10.8
		c-0.9,0.2-1.8,0.3-2.7,0.6c-15.5,4.2-24.7,20.1-20.5,35.6c4.2,15.5,20.1,24.7,35.6,20.5c10-2.7,17.3-10.3,20.2-19.5
		C434.6,33.8,430.9,25,430.8,16.1z"/>
	<path class="st5" d="M433.2-23.8c0.7,0.2,1.5,0.4,2.2,0.7c0.2,0.1,0.4,0.1,0.5,0.2c0.8,0.3,1.5,0.7,2.3,1.1c4,2.3,7,5.9,8.7,10.1
		c2.3-1.3,4.8-2.4,7.5-3.1c7.4-2,15-1.3,21.9,2c6.8-7.1,9.9-17.4,7.1-27.6c-4.2-15.5-20.1-24.7-35.6-20.5
		c-15.5,4.2-24.7,20.1-20.5,35.6c0.1,0.3,0.2,0.6,0.3,0.9c0,0,0,0,0,0c1.8,0,3.7,0.2,5.4,0.6C433.1-23.9,433.2-23.8,433.2-23.8z"/>
</g>
</svg>
