<svg xmlns="http://www.w3.org/2000/svg" width="451.026" height="64.5" viewBox="0 0 451.026 64.5">
  <g id="Logo" transform="translate(-190 -81)">
    <path id="Path_13" data-name="Path 13" d="M33.136,0,33.06-26.6H28.006L18.2-10.07,8.246-26.6H3.154V0H8.93V-15.618L16.72-2.812h2.774L27.322-15.96,27.36,0ZM60.382,0h6.46L54.948-26.6h-6.08L37.012,0H43.32l2.356-5.7h12.35ZM47.652-10.374,51.87-20.558l4.218,10.184ZM74.86,0h6.156V-21.584h8.512V-26.6H66.348v5.016H74.86ZM99.788,0h6.156V-21.584h8.512V-26.6H91.276v5.016h8.512Zm36.366,0h6.156V-21.584h8.512V-26.6h-23.18v5.016h8.512Zm19.038,0h6.156V-26.6h-6.156ZM174.23,0h6.156V-21.584H188.9V-26.6h-23.18v5.016h8.512Zm31.388.456c4.636,0,8.474-1.672,10.982-4.75l-3.952-3.648a8.477,8.477,0,0,1-6.688,3.154,8.16,8.16,0,0,1-8.512-8.512,8.16,8.16,0,0,1,8.512-8.512,8.558,8.558,0,0,1,6.688,3.116l3.952-3.648c-2.508-3.04-6.346-4.712-10.944-4.712-8.284,0-14.44,5.738-14.44,13.756S197.372.456,205.618.456ZM240.046-26.6v10.488H227.962V-26.6h-6.156V0h6.156V-10.906h12.084V0H246.2V-26.6ZM259.692-4.94V-11.1h12.35v-4.788h-12.35V-21.66h13.984V-26.6h-20.1V0h20.6V-4.94Zm38.76-21.66v16.15L285.228-26.6h-5.092V0h6.08V-16.15L299.478,0h5.054V-26.6Zm19.57,21.66V-11.1h12.35v-4.788h-12.35V-21.66h13.984V-26.6H311.9V0h20.6V-4.94Zm44,4.94L356.06-8.55a8.648,8.648,0,0,0,5.472-8.4c0-5.966-4.446-9.652-11.552-9.652H338.466V0h6.156V-7.41h5.662L355.414,0ZM355.3-16.948c0,2.888-1.9,4.636-5.662,4.636h-5.016v-9.272h5.016C353.4-21.584,355.3-19.874,355.3-16.948Z" transform="translate(279 132)" fill="#3d3d3d"/>
    <path id="Path_10" data-name="Path 10" d="M65.421,57.839a3.254,3.254,0,0,1-2.989,3.481l-53.911,4.1a3.253,3.253,0,0,1-3.481-2.988L.941,8.521A3.254,3.254,0,0,1,3.929,5.04L57.84.94a3.254,3.254,0,0,1,3.481,2.989Z" transform="translate(189.069 80.07)" fill="#f80"/>
    <path id="Bar_2_" d="M0,0H44V6H0Z" transform="translate(200 95.368)" fill="#fff"/>
    <path id="Path_12" data-name="Path 12" d="M33.136,0,33.06-26.6H28.006L18.2-10.07,8.246-26.6H3.154V0H8.93V-15.618L16.72-2.812h2.774L27.322-15.96,27.36,0Z" transform="translate(196.846 132)" fill="#fff"/>
  </g>
</svg>
